<?xml version="1.0" standalone="no"?>
<!DOCTYPE svg PUBLIC "-//W3C//DTD SVG 1.1//EN" "http://www.w3.org/Graphics/SVG/1.1/DTD/svg11.dtd" >
<svg>
<metadata>
Created by FontForge 20090914 at Tue May 14 19:25:41 2013
 By www-data
Copyright (c) 2007 by La Tipomatika. All rights reserved.
</metadata>
<defs>
<font id="NewCicle-Fina" horiz-adv-x="596" >
  <font-face 
    font-family="New Cicle"
    font-weight="400"
    font-stretch="normal"
    units-per-em="1000"
    panose-1="2 0 0 0 0 0 0 0 0 0"
    ascent="800"
    descent="-200"
    x-height="500"
    cap-height="691"
    bbox="-26 -200 1016 865.001"
    underline-thickness="50"
    underline-position="-50"
    unicode-range="U+0020-U+FB02"
  />
<missing-glyph horiz-adv-x="257" 
 />
    <glyph glyph-name=".notdef" horiz-adv-x="257" 
 />
    <glyph glyph-name="space" unicode=" " horiz-adv-x="257" 
 />
    <glyph glyph-name="space" unicode="&#xa0;" horiz-adv-x="257" 
 />
    <glyph glyph-name="exclam" unicode="!" horiz-adv-x="176" 
d="M103 15c0 -6.66699 -2.16797 -12.334 -6.50098 -17.001s-9.83301 -7 -16.5 -7s-12.334 2.33301 -17.001 7s-7 10.334 -7 17.001s2.33301 12.167 7 16.5s10.334 6.5 17.001 6.5c7.33301 0 12.833 -2.16699 16.5 -6.5s5.83398 -9.83301 6.50098 -16.5zM61.999 691h36v-592
h-36v592z" />
    <glyph glyph-name="quotedbl" unicode="&#x22;" horiz-adv-x="217" 
d="M36 691h48l7 -63l-38 -80l-6 6zM111 691h48l7 -63l-38 -80l-6 6z" />
    <glyph glyph-name="numbersign" unicode="#" horiz-adv-x="714" 
d="M68 265h106l52 143h-194l35 44h175l71 192h45l-70 -192h240l71 192h45l-70 -192h116l-35 -44h-97l-53 -143h186l-36 -44h-166l-79 -221h-46l80 221h-241l-79 -221h-46l80 221h-126zM219 265h241l52 143h-240z" />
    <glyph glyph-name="dollar" unicode="$" horiz-adv-x="466" 
d="M211 652c-18 -3.33301 -35.001 -9.33398 -51.001 -18.001s-30 -19.167 -42 -31.5s-21.5 -26.166 -28.5 -41.499s-10.5 -31.333 -10.5 -48c0 -17.333 3.33301 -34 10 -50s15.834 -30.5 27.501 -43.5s25.5 -24.167 41.5 -33.5s33.667 -16 53 -20v286zM252.999 34.999
c18 2.66699 35.1689 7.83203 51.502 15.499s30.666 17.334 42.999 29.001s22.166 25.167 29.499 40.5s11 32 11 50s-3.33301 35 -10 51s-16 30.667 -28 44s-26.333 24.5 -43 33.5s-34.667 15.5 -54 19.5v-283zM253.001 736.997l-0.00195312 -43.0029
c36.667 0 69.5 -7 98.5 -21s54.167 -32.667 75.5 -56l-34 -27c-16 19.333 -36.167 35 -60.5 47s-50.833 18 -79.5 18v-296c26 -5.33301 50 -13.666 72 -24.999s41 -25.166 57 -41.499s28.5 -34.666 37.5 -54.999s13.5 -41.833 13.5 -64.5
c0 -23.333 -4.66699 -45.333 -14 -66s-22 -39 -38 -55s-35 -29.167 -57 -39.5s-45.667 -16.833 -71 -19.5v-59h-42v57c-2.66699 0.666992 -6.33398 1 -11.001 1c-35.333 3.33301 -67.166 13.5 -95.499 30.5s-51.166 37.833 -68.499 62.5l34 27
c13.333 -20.667 32.5 -39 57.5 -55s52.833 -24 83.5 -24v290c-26 4.66699 -49.667 12.667 -71 24s-39.833 25.333 -55.5 42s-27.834 35.167 -36.501 55.5s-13 41.833 -13 64.5c0 24 4.33301 46.167 13 66.5s20.834 38.5 36.501 54.5s34.334 29.333 56.001 40
s45.167 18 70.5 22v45h42z" />
    <glyph glyph-name="percent" unicode="%" horiz-adv-x="773" 
d="M568 691h50l-401 -690h-48zM91 506c0 -16.667 2.83301 -32.5 8.5 -47.5s13.334 -28.167 23.001 -39.5s21 -20.333 34 -27s26.833 -10 41.5 -10c14 0 27.333 3.33301 40 10s23.667 15.667 33 27s16.833 24.5 22.5 39.5s8.5 30.833 8.5 47.5
c0 17.333 -2.83301 33.666 -8.5 48.999s-13.167 28.5 -22.5 39.5s-20.333 19.667 -33 26s-26 9.5 -40 9.5c-14.667 0 -28.5 -3.16699 -41.5 -9.5s-24.333 -15 -34 -26s-17.334 -24.167 -23.001 -39.5s-8.5 -31.666 -8.5 -48.999zM49 506c0 22.667 3.83301 44.167 11.5 64.5
s18.334 38 32.001 53s29.5 26.833 47.5 35.5s37.333 13 58 13c20 0 39 -4.33301 57 -13s33.5 -20.5 46.5 -35.5s23.333 -32.667 31 -53s11.5 -41.833 11.5 -64.5s-3.83301 -44.167 -11.5 -64.5s-18 -38 -31 -53s-28.5 -26.833 -46.5 -35.5s-37 -13 -57 -13
c-20.667 0 -40 4.33301 -58 13s-33.833 20.5 -47.5 35.5s-24.334 32.667 -32.001 53s-11.5 41.833 -11.5 64.5zM476 169c0 -17.333 2.66699 -33.5 8 -48.5s12.833 -28.167 22.5 -39.5s20.834 -20.166 33.501 -26.499s26 -9.5 40 -9.5c14.667 0 28.5 3.16699 41.5 9.5
s24.333 15.166 34 26.499s17.334 24.5 23.001 39.5s8.5 31.167 8.5 48.5s-2.83301 33.666 -8.5 48.999s-13.334 28.5 -23.001 39.5s-21 19.667 -34 26s-26.833 9.5 -41.5 9.5c-14 0 -27.333 -3.16699 -40 -9.5s-23.834 -15 -33.501 -26s-17.167 -24.167 -22.5 -39.5
s-8 -31.666 -8 -48.999zM434 169c0 22.667 3.83301 44.167 11.5 64.5s18.167 37.833 31.5 52.5s28.833 26.334 46.5 35.001s36.5 13 56.5 13c20.667 0 40 -4.33301 58 -13s33.667 -20.334 47 -35.001s24 -32.167 32 -52.5s12 -41.833 12 -64.5s-4 -44.167 -12 -64.5
s-18.667 -38 -32 -53s-29 -26.833 -47 -35.5s-37.333 -13 -58 -13c-20 0 -38.833 4.33301 -56.5 13s-33.167 20.5 -46.5 35.5s-23.833 32.667 -31.5 53s-11.5 41.833 -11.5 64.5z" />
    <glyph glyph-name="ampersand" unicode="&#x26;" horiz-adv-x="597" 
d="M248 0c-30 0 -57.6699 5.00098 -83.0029 15.001s-47.166 23.667 -65.499 41s-32.666 37.333 -42.999 60s-15.5 46.667 -15.5 72c0 38 12.833 73.5 38.5 106.5s65.167 61.833 118.5 86.5l26 12l-18 21c-16.667 18 -30 33.833 -40 47.5s-17.667 26 -23 37
s-8.83301 21.167 -10.5 30.5s-2.5 18.333 -2.5 27c0 17.333 3.66699 34.333 11 51s17.833 31.5 31.5 44.5s30 23.5 49 31.5s40.5 12 64.5 12c21.333 0 41 -3.5 59 -10.5s33.5 -16.5 46.5 -28.5s23 -26 30 -42s10.5 -33 10.5 -51c0 -29.333 -7.66699 -56.833 -23 -82.5
s-44.333 -51.5 -87 -77.5l-31 -19l159 -195l18 26l25.5 38c9 14 15.167 29 18.5 45l34 -7c-8 -25.333 -19 -49.333 -33 -72s-26.667 -42.334 -38 -59.001l20.5 -30c5.66699 -8 11.334 -15.5 17.001 -22.5l17 -22l20.5 -27.5v-58l-22 23.5
c-5.33301 5.66699 -10.5 11.5 -15.5 17.5l-17.5 20l-28 31l-16 18l-15 -21c-23.333 -32 -51.5 -55 -84.5 -69s-67.5 -20.667 -103.5 -20zM390.997 562.001c0 29.333 -10.1689 53.1689 -30.502 71.502s-45.833 27.5 -76.5 27.5c-14 0 -27.833 -2.83301 -41.5 -8.5
s-25.667 -13.334 -36 -23.001s-18.833 -20.834 -25.5 -33.501s-10 -26 -10 -40c0.666992 -15.333 4.33398 -29.833 11.001 -43.5s16.334 -27.5 29.001 -41.5l49 -56l22 12c18 10 33.833 21 47.5 33s25 24.167 34 36.5s15.833 24.333 20.5 36s7 21.5 7 29.5zM245.995 364.004
c-58 -30 -100 -59.666 -126 -88.999s-39 -59 -39 -89c0 -18.667 4.5 -37 13.5 -55s21 -34 36 -48s32.667 -25.333 53 -34s41.833 -13 64.5 -13c30 -0.666992 60 7.16602 90 23.499s55.667 37.5 77 63.5l12 15z" />
    <glyph glyph-name="quotesingle" unicode="'" horiz-adv-x="121" 
d="M47 686l48 5l7 -63l-74 -78l-6 6l32 67z" />
    <glyph glyph-name="parenleft" unicode="(" horiz-adv-x="260" 
d="M177 646c-12.667 -15.333 -24 -35.1689 -34 -59.502s-18.667 -52 -26 -83s-13 -64.667 -17 -101s-6 -74.166 -6 -113.499c0 -43.333 2.33301 -84.666 7 -123.999s11.167 -75.333 19.5 -108s18.5 -61.167 30.5 -85.5s25 -43.166 39 -56.499l-25 -42
c-17.333 16.667 -33.333 39 -48 67s-27.167 60 -37.5 96s-18.5 75.333 -24.5 118s-9 87.667 -9 135c0 44.667 2.83301 87.667 8.5 129s13.5 79.666 23.5 114.999s21.833 66.833 35.5 94.5s28.5 50.167 44.5 67.5z" />
    <glyph glyph-name="parenright" unicode=")" horiz-adv-x="246" 
d="M90 695c16 -17.333 30.833 -39.8301 44.5 -67.4971s25.5 -59.167 35.5 -94.5s17.833 -73.666 23.5 -114.999s8.5 -84.333 8.5 -129c0 -47.333 -3 -92.333 -9 -135s-14.167 -82 -24.5 -118s-22.833 -68 -37.5 -96s-30.667 -50.333 -48 -67l-25 42
c14 13.333 27 32.166 39 56.499s22.167 52.833 30.5 85.5s14.833 68.667 19.5 108s7 80.666 7 123.999c0 39.333 -2 77.166 -6 113.499s-9.66699 70 -17 101s-16 58.667 -26 83s-21.333 44.166 -34 59.499z" />
    <glyph glyph-name="asterisk" unicode="*" horiz-adv-x="471" 
d="M257 388h-42v121l-86 -85l-30 29l86 87h-120v41h121l-86 86l29 30l86 -86v122h42v-122l86 86l30 -29l-86 -86h122v-42h-122l86 -87l-29 -29l-87 86v-122z" />
    <glyph glyph-name="plus" unicode="+" horiz-adv-x="452" 
d="M248 121h-42v152h-151v42h151v151h42v-151h152v-42h-152v-152z" />
    <glyph glyph-name="comma" unicode="," horiz-adv-x="173" 
d="M77 64h48l1 -64l-83 -69l-5 6l40 63z" />
    <glyph glyph-name="hyphen" unicode="-" horiz-adv-x="421" 
d="M41 273v42h345v-42h-345z" />
    <glyph glyph-name="period" unicode="." horiz-adv-x="145" 
d="M42 64h64l1 -64h-64z" />
    <glyph glyph-name="slash" unicode="/" horiz-adv-x="378" 
d="M91 0h-46l252 691h45z" />
    <glyph glyph-name="zero" unicode="0" horiz-adv-x="586" 
d="M84 344c0 -43.333 5.66699 -83.833 17 -121.5s26.5 -70.5 45.5 -98.5s41.333 -50.167 67 -66.5s53.167 -24.5 82.5 -24.5s56.833 8.16699 82.5 24.5s48 38.5 67 66.5s34 60.833 45 98.5s16.5 78.167 16.5 121.5c0 42.667 -5.5 82.834 -16.5 120.501s-26 70.5 -45 98.5
s-41.333 50 -67 66s-53.167 24 -82.5 24s-56.833 -8 -82.5 -24s-48 -38 -67 -66s-34.167 -60.833 -45.5 -98.5s-17 -77.834 -17 -120.501zM42 344c0 48.667 6.66699 94.334 20 137.001s31.5 79.834 54.5 111.501s50 56.667 81 75s63.833 27.5 98.5 27.5
s67.334 -9.16699 98.001 -27.5s57.5 -43.333 80.5 -75s41 -68.834 54 -111.501s19.5 -88.334 19.5 -137.001s-6.5 -94.334 -19.5 -137.001s-31 -80 -54 -112s-49.833 -57.333 -80.5 -76s-63.334 -28 -98.001 -28s-67.5 9.33301 -98.5 28s-58 44 -81 76
s-41.167 69.333 -54.5 112s-20 88.334 -20 137.001z" />
    <glyph glyph-name="one" unicode="1" horiz-adv-x="306" 
d="M39 559l159 132h42l1 -691h-42l-1 637l-159 -131v53z" />
    <glyph glyph-name="two" unicode="2" horiz-adv-x="475" 
d="M98 41h348.999v-41h-387h-18v41l289 325c14 15.333 25 32.666 33 51.999s12 40 12 62c0 24 -4.5 46.667 -13.5 68s-21.5 39.666 -37.5 54.999s-34.667 27.5 -56 36.5s-44.333 13.5 -69 13.5c-24 0 -46.667 -4.5 -68 -13.5s-39.666 -21.167 -54.999 -36.5l-30 30
c20 19.333 43 34.5 69 45.5s54 16.5 84 16.5s58.167 -5.66699 84.5 -17s49.333 -26.666 69 -45.999s35.167 -42 46.5 -68s17 -54 17 -84c0 -28 -5 -54.167 -15 -78.5s-24 -46.166 -42 -65.499z" />
    <glyph glyph-name="three" unicode="3" horiz-adv-x="431" 
d="M43 632c19.333 20.667 40.5059 36.1719 63.5059 46.5049s50.5 15.5 82.5 15.5c28.667 0 55.667 -5 81 -15s47.333 -23.5 66 -40.5s33.5 -37 44.5 -60s16.5 -47.5 16.5 -73.5c0 -36 -10.5 -66.167 -31.5 -90.5s-48.167 -44.166 -81.5 -59.499
c16.667 -8 32.167 -18.333 46.5 -31s26.666 -27 36.999 -43s18.333 -32.833 24 -50.5s8.5 -35.167 8.5 -52.5c0 -24.667 -5.66699 -47.834 -17 -69.501s-26.5 -40.667 -45.5 -57s-41.167 -29.166 -66.5 -38.499s-52.333 -14 -81 -14c-16 0 -32.667 2.33301 -50 7
s-33.833 11 -49.5 19s-30.334 17.333 -44.001 28s-24.834 22 -33.501 34l30 28c6.66699 -10 15.667 -19.333 27 -28s23.666 -16.5 36.999 -23.5s27.166 -12.5 41.499 -16.5s28.166 -6 41.499 -6c22.667 0 44.167 3.5 64.5 10.5s38 16.833 53 29.5s27 27.167 36 43.5
s13.5 34.166 13.5 53.499c0 18 -4 36 -12 54s-19 34.167 -33 48.5s-30.5 26.166 -49.5 35.499s-39.167 14.666 -60.5 15.999h-56v42h25c6.66699 0 12.834 0.166992 18.501 0.5s9.16699 0.5 10.5 0.5c21.333 1.33301 41.333 5.16602 60 11.499s35 15.166 49 26.499
s25 24.666 33 39.999s12 32.666 12 51.999c0 20.667 -4.33301 40 -13 58s-20.5 33.667 -35.5 47s-32.5 23.833 -52.5 31.5s-41.333 11.5 -64 11.5c-26.667 0 -48.834 -4.16699 -66.501 -12.5s-34.167 -21.166 -49.5 -38.499z" />
    <glyph glyph-name="four" unicode="4" horiz-adv-x="473" 
d="M40 253v40v1h1l228 397l36 -21l-216 -376h233l-1 155h41l1 -155h71v-41h-71v-253h-41v253h-282v0z" />
    <glyph glyph-name="five" unicode="5" horiz-adv-x="504" 
d="M65 352l24 339h353v-42h-311l-24 -224c19.333 21.333 43.5 38.333 72.5 51s59.167 19 90.5 19c30.667 0 58.334 -6.5 83.001 -19.5s45.667 -30.5 63 -52.5s30.5 -48 39.5 -78s13.5 -62 13.5 -96s-5.66699 -66.167 -17 -96.5s-27 -56.833 -47 -79.5
s-43.5 -40.5 -70.5 -53.5s-55.833 -19.5 -86.5 -19.5c-36 -0 -69.667 8.83301 -101 26.5s-56.666 41.5 -75.999 71.5l29 29c15.333 -26 35.833 -46.667 61.5 -62s54.167 -23 85.5 -23c24.667 0 48 5.33301 70 16s41.167 25.334 57.5 44.001s29.166 40.667 38.499 66
s14 52.333 14 81s-3.5 55.5 -10.5 80.5s-17.167 46.667 -30.5 65s-29.833 32.833 -49.5 43.5s-41.834 16 -66.501 16c-34.667 0 -67 -9.33301 -97 -28s-52 -43.334 -66 -74.001h-42z" />
    <glyph glyph-name="six" unicode="6" horiz-adv-x="506" 
d="M473 198c0 -29.333 -5.5 -56.5039 -16.5 -81.5039s-25.833 -46.833 -44.5 -65.5s-40.834 -33.167 -66.501 -43.5s-52.834 -15.5 -81.501 -15.5c-28 0 -54.167 5.16699 -78.5 15.5s-45.833 24.333 -64.5 42s-33.5 38.667 -44.5 63s-17.167 50.5 -18.5 78.5v3
c-2.66699 26 -4 52.833 -4 80.5v79.5c0 29.333 0.833008 57.5 2.5 84.5s5.16699 53.167 10.5 78.5c4.66699 24.667 13.334 47.667 26.001 69s28 40 46 56s38.333 28.833 61 38.5s47 14.834 73 15.501c36 0 69.5 -7.5 100.5 -22.5s57.167 -36.5 78.5 -64.5l-42 -26
c-15.333 21.333 -35 38.5 -59 51.5s-49.667 19.5 -77 19.5c-20.667 0 -40.334 -3.83301 -59.001 -11.5s-35.667 -18.167 -51 -31.5s-28.166 -29.166 -38.499 -47.499s-17.5 -38.166 -21.5 -59.499c-4.66699 -24.667 -8 -50.5 -10 -77.5s-3 -55.167 -3 -84.5
c0 -5.33301 0.166992 -10.333 0.5 -15s0.5 -9.66699 0.5 -15c17.333 28 40.5 50.5 69.5 67.5s61.167 26.167 96.5 27.5c28.667 0 56 -5 82 -15s48.667 -23.833 68 -41.5s34.833 -38.667 46.5 -63s17.834 -51.166 18.501 -80.499v-9zM432 204.996
c-0.666992 22.667 -5.50098 43.8379 -14.501 63.5049s-21 36.667 -36 51s-32.667 25.666 -53 33.999s-41.833 12.5 -64.5 12.5c-23.333 0 -45.166 -4.66699 -65.499 -14s-37.833 -21.833 -52.5 -37.5s-26.167 -33.834 -34.5 -54.501s-12.5 -42.334 -12.5 -65.001
s4.5 -43.834 13.5 -63.501s21.167 -36.834 36.5 -51.501s33 -26.334 53 -35.001s41.333 -13 64 -13s44.167 4.33301 64.5 13s38 20.5 53 35.5s26.833 32.333 35.5 52s13 40.834 13 63.501v9z" />
    <glyph glyph-name="seven" unicode="7" horiz-adv-x="443" 
d="M346 649h-305v42h375l-321 -691h-50z" />
    <glyph glyph-name="eight" unicode="8" horiz-adv-x="459" 
d="M32 191c0 40.667 10.5 77 31.5 109s47.833 56.333 80.5 73c-26.667 14.667 -48.334 35.167 -65.001 61.5s-25 55.5 -25 87.5c0 24 4.66699 46.5 14 67.5s22 39.333 38 55s34.833 28 56.5 37s44.5 13.5 68.5 13.5c25.333 0 49 -4.5 71 -13.5s41 -21.333 57 -37
s28.667 -34 38 -55s14 -43.5 14 -67.5c0 -32 -8.16699 -61.167 -24.5 -87.5s-38.5 -46.833 -66.5 -61.5c34.667 -16.667 62.167 -41 82.5 -73s30.5 -68.333 30.5 -109c0 -27.333 -5.16699 -53.166 -15.5 -77.499s-24.666 -45.5 -42.999 -63.5s-39.833 -32.333 -64.5 -43
s-51 -16 -79 -16c-27.333 0 -53 5.33301 -77 16s-45 25 -63 43s-32.333 39.167 -43 63.5s-16 50.166 -16 77.499zM96 522c0 -18 3.5 -34.833 10.5 -50.5s16.667 -29.334 29 -41.001s26.666 -21 42.999 -28s33.833 -10.5 52.5 -10.5s36.334 3.5 53.001 10.5
s31.334 16.333 44.001 28s22.5 25.334 29.5 41.001s10.5 32.5 10.5 50.5s-3.5 35 -10.5 51s-16.833 30 -29.5 42s-27.334 21.333 -44.001 28s-34.334 10 -53.001 10s-36.167 -3.33301 -52.5 -10s-30.666 -16 -42.999 -28s-22 -26 -29 -42s-10.5 -33 -10.5 -51zM74 191
c0 -21.333 4.16699 -41.5 12.5 -60.5s19.666 -35.833 33.999 -50.5s31 -26.167 50 -34.5s39.167 -12.5 60.5 -12.5c22 0 42.833 4.16699 62.5 12.5s36.667 19.833 51 34.5s25.666 31.5 33.999 50.5s12.5 39.167 12.5 60.5c0 22 -4.16699 42.667 -12.5 62
s-19.666 36.333 -33.999 51s-31.333 26.167 -51 34.5s-40.5 12.5 -62.5 12.5c-21.333 0 -41.5 -4.16699 -60.5 -12.5s-35.667 -19.833 -50 -34.5s-25.666 -31.667 -33.999 -51s-12.5 -40 -12.5 -62z" />
    <glyph glyph-name="nine" unicode="9" horiz-adv-x="489" 
d="M38 488c0 28.667 5.50195 55.5029 16.502 80.5029s25.833 47 44.5 66s40.667 34 66 45s52.333 16.5 81 16.5s55.667 -5.33301 81 -16s47.333 -25 66 -43s33.5 -39.167 44.5 -63.5s17.167 -50.5 18.5 -78.5v-3c2 -27.333 3 -55.333 3 -84v-84
c0 -26.667 -0.833008 -52.834 -2.5 -78.501s-4.83398 -50.5 -9.50098 -74.5c-5.33301 -26 -14.666 -50 -27.999 -72s-29.666 -40.833 -48.999 -56.5s-41.166 -27.834 -65.499 -36.501s-49.833 -13 -76.5 -13c-33.333 0 -64.833 7.66699 -94.5 23s-54.167 35 -73.5 59l41 33
c16 -22.667 35.833 -40.334 59.5 -53.001s48.5 -19 74.5 -19c22 0 42.667 3.66699 62 11s36.666 17.5 51.999 30.5s28.166 28.5 38.499 46.5s17.833 37.333 22.5 58c3.33301 24.667 6 50.167 8 76.5s3 53.5 3 81.5v34c-18.667 -28 -43.334 -50.167 -74.001 -66.5
s-65 -24.5 -103 -24.5c-27.333 0 -53.333 5.16699 -78 15.5s-46.334 24.333 -65.001 42s-33.667 38.5 -45 62.5s-17.333 50 -18 78v7zM78.002 483.003c1.33301 -22 6.49902 -42.6699 15.499 -62.0029s21 -36.166 36 -50.499s32.333 -25.666 52 -33.999
s40.5 -12.5 62.5 -12.5c24 0 46.333 4.33301 67 13s38.667 20.5 54 35.5s27.333 32.667 36 53s13 42.166 13 65.499c0 22 -4.5 42.833 -13.5 62.5s-21.333 36.834 -37 51.501s-33.5 26.334 -53.5 35.001s-41 13 -63 13c-24 0 -46.167 -4.66699 -66.5 -14
s-38.166 -21.666 -53.499 -36.999s-27.333 -33.333 -36 -54s-13 -42.334 -13 -65.001z" />
    <glyph glyph-name="colon" unicode=":" horiz-adv-x="182" 
d="M60 64h64l1 -64h-64zM60 500h64v-64h-64v64z" />
    <glyph glyph-name="semicolon" unicode=";" horiz-adv-x="169" 
d="M60 500h64v-64h-64v64zM66 64h48l1 -64l-83 -69l-5 6l40 63z" />
    <glyph glyph-name="less" unicode="&#x3c;" horiz-adv-x="330" 
d="M271 494l31 -29l-215 -217l215 -212l-30 -31l-244 243z" />
    <glyph glyph-name="equal" unicode="=" horiz-adv-x="440" 
d="M69 438h335v-44h-335v44zM69 244h335v-44h-335v44z" />
    <glyph glyph-name="greater" unicode="&#x3e;" horiz-adv-x="336" 
d="M312 248l-244 -243l-30 31l215 212l-215 217l31 29z" />
    <glyph glyph-name="question" unicode="?" horiz-adv-x="410" 
d="M188 0l-91.998 321v41h94c19.333 0.666992 37.5 4.83398 54.5 12.501s31.667 18 44 31s22.166 28.167 29.499 45.5s11 35.666 11 54.999c0 20.667 -3.66699 40 -11 58s-17.5 33.667 -30.5 47s-28.167 23.833 -45.5 31.5s-35.666 11.5 -54.999 11.5
c-26 0 -49.5 -6.66699 -70.5 -20s-37.833 -30.666 -50.5 -51.999l-29 29c16 25.333 37.167 45.666 63.5 60.999s55.166 23 86.499 23c25.333 0 49.166 -5 71.499 -15s41.666 -23.5 57.999 -40.5s29.333 -37 39 -60s14.5 -47.5 14.5 -73.5
c0 -24.667 -4.66699 -48.167 -14 -70.5s-22.166 -42 -38.499 -59s-35.5 -30.5 -57.5 -40.5s-45.333 -15 -70 -15h-53l95 -321h-44zM206.002 -96c0 8 2.66699 14.333 8 19s11.666 7 18.999 7c17.333 0 26 -8.66699 26 -26c0 -8 -2.33301 -14.833 -7 -20.5s-11 -8.5 -19 -8.5
c-7.33301 0 -13.666 2.83301 -18.999 8.5s-8 12.5 -8 20.5z" />
    <glyph glyph-name="at" unicode="@" horiz-adv-x="799" 
d="M487 -94c-27.333 -7.33301 -56.0029 -10.9912 -86.0029 -10.9912c-48 0 -93.167 9.16699 -135.5 27.5s-79.166 43.166 -110.499 74.499s-56.166 68.166 -74.499 110.499s-27.5 87.5 -27.5 135.5c0 48.667 9.16699 94.167 27.5 136.5s43.166 79.166 74.499 110.499
s68.166 56.166 110.499 74.499s87.5 27.5 135.5 27.5c46 0 89.167 -8.16699 129.5 -24.5s75.333 -38.666 105 -66.999s53.167 -61.666 70.5 -99.999s26 -79.5 26 -123.5c0 -30 -3.33301 -57.833 -10 -83.5s-14 -48.167 -22 -67.5c-9.33301 -22 -19.666 -42.333 -30.999 -61
c-10 -14 -21.833 -25.167 -35.5 -33.5s-27.834 -12.5 -42.501 -12.5c-13.333 0 -25.166 2.66699 -35.499 8s-19.833 12.333 -28.5 21s-16 18 -22 28s-11 19.667 -15 29c-5.33301 -2 -13.166 -4.5 -23.499 -7.5s-21.5 -6 -33.5 -9s-24 -5.83301 -36 -8.5
s-22.333 -4.33398 -31 -5.00098c-11.333 -1.33301 -24.5 -0.166016 -39.5 3.50098s-29.167 10.667 -42.5 21s-24.5 24.333 -33.5 42s-13.5 40.167 -13.5 67.5c0 15.333 2 32.666 6 51.999c6 32 15.5 58.333 28.5 79s28 37.167 45 49.5s35.167 20.833 54.5 25.5
s38.666 7 57.999 7c12 0 25.833 -0.333008 41.5 -1s30.167 -1.33398 43.5 -2.00098c16 -1.33301 32 -2.33301 48 -3c-9.33301 -40.667 -16.666 -74.334 -21.999 -101.001l-13 -65c-3.33301 -16.667 -5.66602 -28.834 -6.99902 -36.501s-2 -12.834 -2 -15.501v-5
c-1.33301 -18 -0.166016 -34.833 3.50098 -50.5s9 -29.5 16 -41.5s15.167 -21.333 24.5 -28s19 -10 29 -10c15.333 0 30.333 9.33301 45 28v-1c8.66699 15.333 16.667 32.666 24 51.999c6 16.667 11.667 36.167 17 58.5s8 47.166 8 74.499
c0 38.667 -7.16699 74.667 -21.5 108s-34.166 62.333 -59.499 87s-55.333 44 -90 58s-72.334 21 -113.001 21c-42 0 -81.5 -8 -118.5 -24s-69.333 -37.833 -97 -65.5s-49.5 -60.167 -65.5 -97.5s-24 -77 -24 -119s8 -81.5 24 -118.5s37.833 -69.167 65.5 -96.5
s60 -49 97 -65s76.5 -24 118.5 -24c12 0 25.167 0.833008 39.5 2.5s29.166 5.16699 44.499 10.5zM457.997 140.009l23.499 114.998c7.66699 38.667 15.834 77 24.501 115c-7.33301 0.666992 -18 1 -32 1s-31.333 0.333008 -52 1c-14 0 -27.667 -1.66699 -41 -5
s-25.5 -9.16602 -36.5 -17.499s-20.667 -20 -29 -35s-14.833 -33.833 -19.5 -56.5c-2 -8.66699 -3.33301 -16.667 -4 -24s-1 -14.333 -1 -21c0 -16.667 2.16699 -30.667 6.5 -42s9.83301 -20.5 16.5 -27.5s14 -12.167 22 -15.5s15.667 -5 23 -5
c18 -0.666992 36.5 0.833008 55.5 4.5s33.5 7.83398 43.5 12.501z" />
    <glyph glyph-name="A" unicode="A" 
d="M410 329l-107 288l-106 -288h213zM286 691h35l256 -691h-44l-108 287h-243l-106 -287h-44z" />
    <glyph glyph-name="B" unicode="B" horiz-adv-x="512" 
d="M257 0l-202.998 -0.000976562l-1 691h42h179c25.333 -0.666992 49.166 -5.66699 71.499 -15s41.666 -21.666 57.999 -36.999s29.333 -33.166 39 -53.499s14.5 -41.833 14.5 -64.5c0 -34 -9 -64.5 -27 -91.5s-42 -48.167 -72 -63.5
c34.667 -14.667 62.167 -37.334 82.5 -68.001s30.5 -64.667 30.5 -102c0 -26 -5 -50.667 -15 -74s-23.833 -43.833 -41.5 -61.5s-38.5 -31.667 -62.5 -42s-50 -15.833 -78 -16.5zM256.002 650.999h-161v-262h179c20 0.666992 38.5 4.5 55.5 11.5s31.833 16.333 44.5 28
s22.667 25.5 30 41.5s11 33 11 51c0 16.667 -3.66699 32.667 -11 48s-17.333 29 -30 41s-27.5 21.5 -44.5 28.5s-35.5 11.167 -55.5 12.5h-18zM274.002 41.999c21.333 0.666992 41.5 5.33301 60.5 14s35.5 20 49.5 34s25 30 33 48s12 37.333 12 58c0 20 -4 38.833 -12 56.5
s-19 33.334 -33 47.001s-30.5 24.667 -49.5 33s-39.167 13.166 -60.5 14.499h-179v-305h161h18z" />
    <glyph glyph-name="C" unicode="C" horiz-adv-x="590" 
d="M529 568l0.00292969 3.00098c-24.667 25.333 -52.834 45.333 -84.501 60s-65.5 22 -101.5 22c-37.333 0 -72.333 -8 -105 -24s-61.334 -38 -86.001 -66s-44.167 -60.667 -58.5 -98s-21.5 -77.333 -21.5 -120c0 -42 6.83301 -81.833 20.5 -119.5s32.5 -70.667 56.5 -99
s52.5 -50.833 85.5 -67.5s69.167 -25 108.5 -25c36 0 69.333 7.16699 100 21.5s58.667 34.166 84 59.499l28 -28c-28 -30 -60 -53.5 -96 -70.5s-74.667 -25.5 -116 -25.5s-80.833 9.33301 -118.5 28s-71 44 -100 76s-52.167 69.5 -69.5 112.5s-26 88.833 -26 137.5
c0 46.667 8.16699 91.167 24.5 133.5s38.666 79.5 66.999 111.5s61.5 57.5 99.5 76.5s79 28.5 123 28.5c41.333 0 80.5 -8.5 117.5 -25.5s69.167 -40.5 96.5 -70.5z" />
    <glyph glyph-name="D" unicode="D" horiz-adv-x="575" 
d="M79 649v-606.998h215v2c27.333 0.666992 53 9.16699 77 25.5s44.833 38.166 62.5 65.499s31.667 59.166 42 95.499s15.5 75.166 15.5 116.499c0 40.667 -5.16699 79.334 -15.5 116.001s-24.5 68.667 -42.5 96s-39 49 -63 65s-50 24.333 -78 25h-213zM37 691.002h42h213
c33.333 -0.666992 64.666 -10 93.999 -28s54.833 -42.5 76.5 -73.5s38.834 -67.333 51.501 -109s19 -86.167 19 -133.5s-6.16699 -91.833 -18.5 -133.5s-29.333 -78 -51 -109s-47 -55.667 -76 -74s-60.167 -27.833 -93.5 -28.5l1 -2h-257z" />
    <glyph glyph-name="E" unicode="E" horiz-adv-x="485" 
d="M391 347h-305v-305h357l1 -42h-399l-1 691h399v-40h-357v-262h305v-42z" />
    <glyph glyph-name="F" unicode="F" horiz-adv-x="487" 
d="M395 347h-305l1 -347h-42l-1 691h399v-39h-357v-263h305v-42z" />
    <glyph glyph-name="G" unicode="G" horiz-adv-x="604" 
d="M556 85c-28.667 -30 -61.168 -53.168 -97.501 -69.501s-75.5 -24.5 -117.5 -24.5c-43.333 0 -84.166 9.16699 -122.499 27.5s-71.833 43.5 -100.5 75.5s-51.334 69.333 -68.001 112s-25 88 -25 136c0 48.667 8.33301 94.334 25 137.001s39.334 80 68.001 112
s62.167 57.333 100.5 76s79.166 28 122.499 28c42 0 81.167 -8.5 117.5 -25.5s68.833 -40.5 97.5 -70.5l-28 -29c-24.667 25.333 -53 45.333 -85 60s-66 22 -102 22c-38 0 -73.5 -8 -106.5 -24s-62 -38 -87 -66s-44.667 -60.833 -59 -98.5s-21.5 -78.167 -21.5 -121.5
c0 -42.667 7.16699 -82.834 21.5 -120.501s34 -70.667 59 -99s54 -50.666 87 -66.999s68.5 -24.5 106.5 -24.5c33.333 0 64.833 6.5 94.5 19.5s55.834 30.167 78.501 51.5v198h-191v40h233v-252v-3z" />
    <glyph glyph-name="H" unicode="H" horiz-adv-x="558" 
d="M91 347l1 -347h-42l-1 691h42v-302h381v302h42l1 -691h-42l-1 347h-381z" />
    <glyph glyph-name="I" unicode="I" horiz-adv-x="138" 
d="M92 0h-42l-1 691h42z" />
    <glyph glyph-name="J" unicode="J" horiz-adv-x="305" 
d="M244 168c0 -24 -3.5 -46.6699 -10.5 -68.0029s-16.333 -40.166 -28 -56.499s-25.334 -29.166 -41.001 -38.499s-32.167 -14 -49.5 -14c-15.333 0 -29.833 3.83301 -43.5 11.5s-26.167 17.834 -37.5 30.501l27 29c7.33301 -8.66699 15.833 -15.667 25.5 -21
s19.167 -8 28.5 -8c12 0 23.167 3.33301 33.5 10s19.333 15.834 27 27.501s13.834 25.667 18.501 42s7 34.166 7 53.499v525h43v-523z" />
    <glyph glyph-name="K" unicode="K" horiz-adv-x="583" 
d="M86 691v-376l322 376h57l-258 -300l335 -391h-54l-308 359l-94 -109l1 -250h-42l-1 691h42z" />
    <glyph glyph-name="L" unicode="L" horiz-adv-x="453" 
d="M86 42h337l1 -42h-379l-1 691h42v-649z" />
    <glyph glyph-name="M" unicode="M" horiz-adv-x="623" 
d="M529 691h43l1 -691h-43l-1 610l-212 -365h-26l-215 365l1 -610h-42l-1 691h42l229 -386z" />
    <glyph glyph-name="N" unicode="N" horiz-adv-x="537" 
d="M88 691l358 -607v607h42l1 -691h-42l-359 610l1 -610h-41l-1 691h41z" />
    <glyph glyph-name="O" unicode="O" horiz-adv-x="690" 
d="M530 570c-23.333 26 -51.1689 46.168 -83.502 60.501s-66.833 21.5 -103.5 21.5c-37.333 0 -72.5 -8 -105.5 -24s-61.833 -37.833 -86.5 -65.5s-44 -60.167 -58 -97.5s-21 -77.333 -21 -120c0 -43.333 7 -83.833 21 -121.5s33.167 -70.5 57.5 -98.5s53 -50.167 86 -66.5
s68.5 -24.5 106.5 -24.5c38.667 0 74.834 8.16699 108.501 24.5s62.667 38.5 87 66.5s43.5 60.833 57.5 98.5s21 78.167 21 121.5c0 45.333 -7.66699 87.166 -23 125.499s-36.666 71.5 -63.999 99.5zM560.997 88.001c-28.667 -31.333 -61.499 -55.333 -98.499 -72
s-76.833 -25 -119.5 -25c-42 0 -82 9 -120 27s-71.333 42.833 -100 74.5s-51.5 69.167 -68.5 112.5s-25.5 90 -25.5 140c0 48.667 8.16699 94.167 24.5 136.5s38.833 79.333 67.5 111s62 56.667 100 75s78.667 27.5 122 27.5c44.667 0 86.167 -9.16699 124.5 -27.5
s71.5 -43.166 99.5 -74.499s50 -68.333 66 -111s24 -88.334 24 -137.001c0 -52 -8.33301 -99.833 -25 -143.5s-40.334 -81.5 -71.001 -113.5z" />
    <glyph glyph-name="P" unicode="P" horiz-adv-x="480" 
d="M95 346l1 -346h-42l-1 691h199c26.667 0 52 -4.5 76 -13.5s44.667 -21.167 62 -36.5s31.166 -33.333 41.499 -54s15.5 -42.667 15.5 -66c0 -24.667 -5.16699 -47.667 -15.5 -69s-24.166 -39.833 -41.499 -55.5s-38 -28 -62 -37s-49.333 -13.5 -76 -13.5h-157zM95 651
v-263.001h157c20.667 0 40.167 3.33301 58.5 10s34.5 16 48.5 28s25 26 33 42s12 33.667 12 53c0 18 -4 34.833 -12 50.5s-19 29.334 -33 41.001s-30.167 21 -48.5 28s-37.833 10.5 -58.5 10.5h-3h-154z" />
    <glyph glyph-name="Q" unicode="Q" horiz-adv-x="665" 
d="M498 581c-22.667 24 -48.335 43 -77.002 57s-60 21 -94 21s-66.333 -7.5 -97 -22.5s-57.5 -35.667 -80.5 -62s-41.167 -57.166 -54.5 -92.499s-20 -73.333 -20 -114c0 -39.333 6.5 -76.333 19.5 -111s30.833 -65 53.5 -91s49.167 -46.833 79.5 -62.5
s62.833 -23.834 97.5 -24.501c-1.33301 12 -6.16602 22.167 -14.499 30.5s-19.166 12.166 -32.499 11.499v36c23.333 0.666992 42.833 -6.16602 58.5 -20.499s25.167 -32.833 28.5 -55.5c29.333 6 57 17.667 83 35s48.667 38.666 68 63.999s34.666 54 45.999 86
s17 66 17 102c0 42 -7.16699 81.333 -21.5 118s-34.166 68.334 -59.499 95.001zM525.999 133c-44 -48.667 -97.6641 -77.665 -160.997 -86.998c2.66699 -21.333 8.16699 -39 16.5 -53s18.166 -21 29.499 -21c7.33301 0 13.5 2.16699 18.5 6.5s9.16699 9.83301 12.5 16.5
l28 -24c-8.66699 -11.333 -17.834 -20.5 -27.501 -27.5s-20.167 -10.5 -31.5 -10.5c-20.667 0 -38.834 10.667 -54.501 32s-25.5 47 -29.5 77c-38.667 0.666992 -75.5 9.66699 -110.5 27s-65.833 40.5 -92.5 69.5s-47.834 63.167 -63.501 102.5s-23.5 81.666 -23.5 126.999
c0 46.667 7.83301 89.834 23.5 129.501s36.834 74.167 63.501 103.5s57.5 52.333 92.5 69s71.833 25 110.5 25c39.333 0 76.666 -8.33301 111.999 -25s66.333 -39.834 93 -69.501s47.834 -64.334 63.501 -104.001s23.5 -82.5 23.5 -128.5s-8.5 -89.333 -25.5 -130
s-39.5 -75.667 -67.5 -105z" />
    <glyph glyph-name="R" unicode="R" horiz-adv-x="474" 
d="M85 347l1 -347h-42l-1 691h198c27.333 0 52.833 -4.5 76.5 -13.5s44.334 -21.167 62.001 -36.5s31.667 -33.333 42 -54s15.5 -43 15.5 -67s-5.16699 -46.5 -15.5 -67.5s-24.333 -39.333 -42 -55s-38.334 -28 -62.001 -37s-49.167 -13.5 -76.5 -13.5h-99l306 -347h-54
l-307 347h-2zM85 652v-263.001h156c20.667 0 40.334 3.33301 59.001 10s35 15.834 49 27.501s25.167 25.5 33.5 41.5s12.5 33.333 12.5 52c0 18 -4.16699 35 -12.5 51s-19.5 30 -33.5 42s-30.333 21.5 -49 28.5s-38.334 10.5 -59.001 10.5h-2h-154z" />
    <glyph glyph-name="S" unicode="S" horiz-adv-x="485" 
d="M79 112c16 -24 37.3301 -43.1709 63.9971 -57.5039s57.667 -21.5 93 -21.5c21.333 0 41.833 3.5 61.5 10.5s36.834 16.5 51.501 28.5s26.334 26.333 35.001 43s13 34.667 13 54s-3.83301 37.5 -11.5 54.5s-18.334 32.333 -32.001 46s-29.667 24.834 -48 33.501
s-38.166 14.334 -59.499 17.001h-3c-28.667 2.66699 -55.167 9.5 -79.5 20.5s-45.333 25 -63 42s-31.5 36.5 -41.5 58.5s-15 45 -15 69c0 26 5.5 50.333 16.5 73s26.167 42.167 45.5 58.5s42 29.166 68 38.499s53.667 14 83 14c38 0 72 -6.66699 102 -20
s55.667 -32.333 77 -57l-34 -27c-16.667 20 -37.5 35.833 -62.5 47.5s-52.5 17.5 -82.5 17.5c-22 0 -43.167 -3.66699 -63.5 -11s-38.333 -17.333 -54 -30s-28.167 -27.5 -37.5 -44.5s-14 -35.5 -14 -55.5c0 -19.333 4 -37.833 12 -55.5s19.167 -33.334 33.5 -47.001
s31.333 -25 51 -34s40.834 -14.5 63.501 -16.5c28 -4 53.833 -11.5 77.5 -22.5s44.167 -24.833 61.5 -41.5s30.833 -35.667 40.5 -57s14.5 -43.666 14.5 -66.999c0 -25.333 -5.5 -49.166 -16.5 -71.499s-25.833 -41.666 -44.5 -57.999s-40.667 -29.166 -66 -38.499
s-52.333 -14 -81 -14c-40.667 0 -77.5 8.66699 -110.5 26s-59.167 40 -78.5 68z" />
    <glyph glyph-name="T" unicode="T" horiz-adv-x="575" 
d="M310 651l1 -651h-42l-1 651h-226v40h268h225v-40h-225z" />
    <glyph glyph-name="U" unicode="U" horiz-adv-x="598" 
d="M88 173c1.33301 -19.333 7.83398 -37.5 19.501 -54.5s27 -31.667 46 -44s41.167 -22.166 66.5 -29.499s52.333 -11 81 -11c27.333 0 53.333 3.66699 78 11s46.5 17.166 65.5 29.499s34.167 27 45.5 44s17.666 35.167 18.999 54.5v518h42v-518
c-1.33301 -24.667 -8.66602 -48 -21.999 -70s-31.333 -41.333 -54 -58s-49 -29.834 -79 -39.501s-61.667 -14.5 -95 -14.5c-34.667 0 -67.334 4.83301 -98.001 14.5s-57.5 22.834 -80.5 39.501s-41.5 36 -55.5 58s-22 45.333 -24 70v518h45v-518z" />
    <glyph glyph-name="V" unicode="V" horiz-adv-x="639" 
d="M43 691h44l233 -629l233 629h44l-254 -691h-44z" />
    <glyph glyph-name="W" unicode="W" horiz-adv-x="915" 
d="M610 0h-46l-110 295l-107 -295h-45l-256 691h44l234 -629l108 295l-123 334h44l101 -275l132 -354l232 629h45z" />
    <glyph glyph-name="X" unicode="X" horiz-adv-x="541" 
d="M47 691h47l180 -302l178 302h49l-202 -344l203 -347h-49l-185 312l-182 -312h-47l205 354z" />
    <glyph glyph-name="Y" unicode="Y" horiz-adv-x="681" 
d="M644 691l-283 -378l1 -313h-43l-1 313l-283 378h57l246 -338l250 338h56z" />
    <glyph glyph-name="Z" unicode="Z" horiz-adv-x="548" 
d="M110 42h368l1 -42h-415h-29l404 649h-376v42h415h35z" />
    <glyph glyph-name="bracketleft" unicode="[" horiz-adv-x="210" 
d="M149 47c0 -3.33301 5.66602 -4.99902 16.999 -4.99902l1 -42c-6 0 -12.5 1.16699 -19.5 3.5s-13.667 5.5 -20 9.5s-11.5 8.83301 -15.5 14.5s-6 12.167 -6 19.5v242c0 13.333 -4.16699 24.166 -12.5 32.499s-18.833 12.5 -31.5 12.5h-20v42h20
c12.667 0 23.167 4.33301 31.5 13s12.5 19.334 12.5 32.001v225v2v3c2 12 8.83301 21.667 20.5 29s24.834 11 39.501 11v-43c-11.333 0 -17 -0.666992 -17 -2v-237c-3.33301 -8.66699 -8.83301 -16.334 -16.5 -23.001s-16.5 -10 -26.5 -10v-42
c10 0 18.833 -2.83301 26.5 -8.5s13.167 -13.5 16.5 -23.5v-255v0z" />
    <glyph glyph-name="backslash" unicode="\" horiz-adv-x="371" 
d="M44 691h45l254 -691h-46z" />
    <glyph glyph-name="bracketright" unicode="]" horiz-adv-x="183" 
d="M48 302c2 10 6.66895 17.832 14.002 23.499s16 8.5 26 8.5l2 42c-11.333 0 -20.666 3.33301 -27.999 10s-12 14.334 -14 23.001v237c-2 1.33301 -8.66699 2 -20 2v43c17.333 0 31.166 -3.83301 41.499 -11.5s16.5 -17.167 18.5 -28.5l2 -3v-2v-225
c0 -12.667 3.83301 -23.334 11.5 -32.001s17.5 -13 29.5 -13h21v-42h-21c-12 0 -21.833 -4.16699 -29.5 -12.5s-11.5 -19.166 -11.5 -32.499v-242c0 -13.333 -6.66699 -24.5 -20 -33.5s-27 -13.5 -41 -13.5l-1 42c5.33301 0 9.66602 0.5 12.999 1.5
s5.66602 2.16699 6.99902 3.5v255z" />
    <glyph glyph-name="asciicircum" unicode="^" horiz-adv-x="551" 
d="M277 691l243 -244l-31 -30l-212 215l-217 -215l-29 31z" />
    <glyph glyph-name="underscore" unicode="_" horiz-adv-x="513" 
d="M42 0l-1 42h420l1 -42h-420z" />
    <glyph glyph-name="grave" unicode="`" horiz-adv-x="204" 
d="M31 640h66l66 -87h-23z" />
    <glyph glyph-name="a" unicode="a" horiz-adv-x="408" 
d="M310 41c-15.333 -15.333 -33.3311 -27.5039 -53.998 -36.5039s-42.667 -13.5 -66 -13.5c-22 0 -42.833 4 -62.5 12s-36.667 18.833 -51 32.5s-25.833 29.667 -34.5 48s-13 37.5 -13 57.5c0 20.667 4.33301 40.334 13 59.001s20.167 35 34.5 49s31.333 25 51 33
s40.5 12 62.5 12h120v21v10c0 18.667 -2.5 36.5 -7.5 53.5s-12.167 31.667 -21.5 44s-20.333 22.333 -33 30s-26.334 11.834 -41.001 12.501h-1c-10.667 0 -19.667 -0.333008 -27 -1s-14 -1.83398 -20 -3.50098s-12.167 -3.5 -18.5 -5.5l-22.5 -7l-10 39l24.5 8.5
c7 2.33301 14 4.33301 21 6s14.667 2.83398 23 3.50098s18.166 1 29.499 1h1c20 -0.666992 38.5 -5.5 55.5 -14.5s32 -21.167 45 -36.5s23.333 -33.166 31 -53.499s12.167 -42.166 13.5 -65.499v-11c-0.666992 -59.333 -1 -112.333 -1 -159
c0 -20 -0.166992 -39.667 -0.5 -59s-0.5 -36.833 -0.5 -52.5v-38.5v-16h-40v41zM310.002 250.996c-29.333 0 -52 0.166992 -68 0.5s-27.667 0.5 -35 0.5h-13.5h-3.5c-16 0 -31.333 -3 -46 -9s-27.334 -14 -38.001 -24s-19.167 -21.667 -25.5 -35s-9.5 -27.666 -9.5 -42.999
s3.16699 -29.5 9.5 -42.5s14.833 -24.333 25.5 -34s23.334 -17.334 38.001 -23.001s30 -8.5 46 -8.5c16.667 0 32.167 2.83301 46.5 8.5s27 13.334 38 23.001s19.667 21.167 26 34.5s9.5 27.666 9.5 42.999v109z" />
    <glyph glyph-name="b" unicode="b" horiz-adv-x="523" 
d="M100 71c13.333 -7.33301 28.0029 -13.666 44.0029 -18.999c13.333 -5.33301 29.166 -9.83301 47.499 -13.5s38.166 -5.83398 59.499 -6.50098c26.667 0.666992 52 6.83398 76 18.501s45 27.167 63 46.5s32.333 42.166 43 68.499s16 54.166 16 83.499
c0 28.667 -5.33301 56 -16 82s-25 48.833 -43 68.5s-39 35.334 -63 47.001s-49.333 17.5 -76 17.5c-19.333 0 -38 -2 -56 -6s-34 -8.66699 -48 -14c-16.667 -6 -32.334 -12.333 -47.001 -19v-354zM101.003 0l-40 -0.000976562v94v597h42v-224
c17.333 12.667 38.833 22.334 64.5 29.001s53.5 10 83.5 10c33.333 0 64.5 -6.83301 93.5 -20.5s54.333 -32.334 76 -56.001s38.834 -51 51.501 -82s19 -63.833 19 -98.5c0 -35.333 -6.33301 -68.666 -19 -99.999s-29.834 -58.666 -51.501 -81.999s-47 -41.833 -76 -55.5
s-60.167 -20.834 -93.5 -21.501c-31.333 1.33301 -60 5.5 -86 12.5s-47.667 16.167 -65 27.5z" />
    <glyph glyph-name="c" unicode="c" horiz-adv-x="478" 
d="M404 397c-17.333 20 -38.165 36.1631 -62.498 48.4961s-50.833 18.5 -79.5 18.5c-27.333 0 -53 -5.66699 -77 -17s-44.833 -26.666 -62.5 -45.999s-31.667 -42.166 -42 -68.499s-15.5 -54.5 -15.5 -84.5c0 -29.333 5.16699 -57.166 15.5 -83.499
s24.333 -49.166 42 -68.499s38.5 -34.666 62.5 -45.999s49.667 -17 77 -17s53 5.66699 77 17s45 27 63 47l30 -29c-22.667 -23.333 -48.334 -42 -77.001 -56s-59.667 -21 -93 -21c-32.667 0 -63.5 6.83301 -92.5 20.5s-54.333 32.167 -76 55.5s-38.834 50.5 -51.501 81.5
s-19 64.167 -19 99.5s6.33301 68.666 19 99.999s29.834 58.666 51.501 81.999s47 41.833 76 55.5s59.833 20.5 92.5 20.5c34.667 0 66.667 -7.16699 96 -21.5s54.666 -33.166 75.999 -56.499z" />
    <glyph glyph-name="d" unicode="d" horiz-adv-x="503" 
d="M410 425c-14 6.66699 -29.002 13.001 -45.002 19.001c-13.333 4.66699 -29.166 9 -47.499 13s-37.166 6 -56.499 6c-28 -0.666992 -54.167 -6.83398 -78.5 -18.501s-45.5 -27 -63.5 -46s-32.167 -41.333 -42.5 -67s-15.5 -52.834 -15.5 -81.501
c0 -29.333 5.16699 -57.166 15.5 -83.499s24.5 -49.333 42.5 -69s39.167 -35.5 63.5 -47.5s50.5 -18.333 78.5 -19h2c21.333 0 41 2 59 6s33.667 8.66699 47 14c15.333 6 29 12.667 41 20v354zM409.998 29.001c-17.333 -11.333 -39 -20.334 -65 -27.001s-54 -10.667 -84 -12
c-33.333 0.666992 -64.666 7.83398 -93.999 21.501s-54.833 32.167 -76.5 55.5s-38.834 50.666 -51.501 81.999s-19 65 -19 101c0 35.333 6.33301 68.333 19 99s29.834 57.5 51.501 80.5s47.167 41.333 76.5 55s60.666 20.5 93.999 20.5h2h-2c30 0 57.667 -3.16699 83 -9.5
s47.333 -16.166 66 -29.499v225h42v-598v-93h-42v29z" />
    <glyph glyph-name="e" unicode="e" horiz-adv-x="456" 
d="M241 33c14 0 28.168 1.16895 42.501 3.50195s28 5.5 41 9.5s25.167 8.66699 36.5 14s20.666 10.666 27.999 15.999l17 -39c-16 -12 -36.833 -21.667 -62.5 -29s-51.5 -12.666 -77.5 -15.999h-1c-4 -0.666992 -8.16699 -1 -12.5 -1h-13.5
c-28 0 -54.167 6.16699 -78.5 18.5s-46 29.333 -65 51s-34.333 47 -46 76s-18.5 60.167 -20.5 93.5v19c0 35.333 5.33301 68.666 16 99.999s25 58.666 43 81.999s39 41.833 63 55.5s49.667 20.5 77 20.5c28 0 54 -5.83301 78 -17.5s44.833 -28.167 62.5 -49.5
s31.5 -46.833 41.5 -76.5s15 -62.5 15 -98.5v-24h-353c1.33301 -28 6.83301 -54.5 16.5 -79.5s22 -47 37 -66s32.5 -34.167 52.5 -45.5s41 -17 63 -17zM385.001 282.002c-2 26.667 -7.5 51.167 -16.5 73.5s-20.5 41.5 -34.5 57.5s-30 28.5 -48 37.5s-37.333 13.5 -58 13.5
c-20 0 -39 -4.5 -57 -13.5s-34 -21.5 -48 -37.5s-25.5 -35.167 -34.5 -57.5s-14.5 -46.833 -16.5 -73.5h313z" />
    <glyph glyph-name="f" unicode="f" horiz-adv-x="328" 
d="M293 652c-4.66699 1.33301 -10.3301 2.00391 -16.9971 2.00391h-19c-14.667 -0.666992 -28.334 -4.66699 -41.001 -12s-23.834 -17.333 -33.501 -30s-17.167 -27.334 -22.5 -44.001s-8 -34.334 -8 -53.001v-26h132v-43h-132l1 -446h-39c-0.666992 56 -1 111.333 -1 166
v280h-76v43h74c0.666992 0 1 2.33301 1 7c0 1.33301 -0.166992 3.16602 -0.5 5.49902s-0.5 4.5 -0.5 6.5v7v12c1.33301 22.667 6 44.167 14 64.5s18.5 38.166 31.5 53.499s28.167 27.5 45.5 36.5s35.666 13.5 54.999 13.5h24.5c7.66699 0 15.5 -0.666992 23.5 -2z" />
    <glyph glyph-name="g" unicode="g" horiz-adv-x="551" 
d="M193 115c6 0 11.9971 0.500977 17.9971 1.50098s13.667 1.5 23 1.5c28 0 54.167 -4.16699 78.5 -12.5s45.666 -19.5 63.999 -33.5s32.666 -30.667 42.999 -50s15.5 -40 15.5 -62s-5.16699 -42.667 -15.5 -62s-24.666 -36.166 -42.999 -50.499
s-39.666 -25.833 -63.999 -34.5s-50.5 -13 -78.5 -13c-27.333 0 -53.166 4.33301 -77.499 13s-45.5 20.167 -63.5 34.5s-32.333 31.166 -43 50.499s-16 40 -16 62c0 30 9.5 57.167 28.5 81.5s44.167 43.166 75.5 56.499c-7.33301 12.667 -11 28.334 -11 47.001
c0 11.333 2 21.833 6 31.5s9 17.167 15 22.5c-23.333 16.667 -41.5 36.5 -54.5 59.5s-19.5 47.833 -19.5 74.5c0 24 5.16699 46.5 15.5 67.5s24.5 39.333 42.5 55s39 28 63 37s50 13.5 78 13.5c14.667 0 28 -1 40 -3s23.667 -4.66699 35 -8h173l-41 -42h-63
c17.333 -15.333 30.833 -33 40.5 -53s14.5 -42.333 14.5 -67c0 -24 -5.16699 -46.333 -15.5 -67s-24.5 -38.667 -42.5 -54s-39.167 -27.5 -63.5 -36.5s-50.166 -13.5 -77.499 -13.5c-16.667 0 -31.5 2 -44.5 6s-25.5 6 -37.5 6c-7.33301 0 -14.666 -1.83301 -21.999 -5.5
s-11 -10.834 -11 -21.501c0 -14 3.83301 -22.833 11.5 -26.5s15.5 -5.5 23.5 -5.5zM73.9971 -39.999c0 -16 4.33301 -31.333 13 -46s20.334 -27.5 35.001 -38.5s31.667 -19.667 51 -26s39.666 -9.5 60.999 -9.5c22.667 0 43.834 3.16699 63.501 9.5s36.834 15 51.501 26
s26.167 23.833 34.5 38.5s12.5 30 12.5 46s-4.16699 31.167 -12.5 45.5s-19.833 27 -34.5 38s-31.834 19.833 -51.501 26.5s-40.834 10 -63.501 10c-21.333 0 -41.666 -3.33301 -60.999 -10s-36.333 -15.5 -51 -26.5s-26.334 -23.667 -35.001 -38s-13 -29.5 -13 -45.5z
M114.997 333.001c0 -18 4.16699 -35 12.5 -51s19.666 -29.833 33.999 -41.5s31 -21 50 -28s39.5 -10.5 61.5 -10.5c22.667 0 43.667 3.5 63 10.5s36.166 16.333 50.499 28s25.666 25.5 33.999 41.5s12.5 33 12.5 51c0 18.667 -4.16699 36.167 -12.5 52.5
s-19.666 30.5 -33.999 42.5s-31.166 21.333 -50.499 28s-40.333 10 -63 10c-22 0 -42.5 -3.33301 -61.5 -10s-35.667 -16 -50 -28s-25.666 -26.167 -33.999 -42.5s-12.5 -33.833 -12.5 -52.5z" />
    <glyph glyph-name="h" unicode="h" horiz-adv-x="455" 
d="M88 693v-264.003c16 24.667 35.833 43.834 59.5 57.501s50.167 20.5 79.5 20.5c23.333 0 45.166 -4.66699 65.499 -14s38 -22.333 53 -39s26.833 -36 35.5 -58s13.334 -45.667 14.001 -71l3 -322h-42v322c-0.666992 20 -4.66699 38.5 -12 55.5s-17 31.833 -29 44.5
s-26.167 22.667 -42.5 30s-33.5 11 -51.5 11c-16 0 -31.5 -3.16699 -46.5 -9.5s-28.5 -15.166 -40.5 -26.499s-22 -24.666 -30 -39.999s-13.333 -32 -16 -50l1 -340h-42l-1 693h42z" />
    <glyph glyph-name="i" unicode="i" horiz-adv-x="202" 
d="M85 500h41l1 -500h-41zM77 650c0 7.33301 2.83301 13.666 8.5 18.999s12.5 8 20.5 8c7.33301 0 14 -2.66699 20 -8s9 -11.666 9 -18.999s-3 -13.666 -9 -18.999s-12.667 -8 -20 -8c-8 0 -14.833 2.66699 -20.5 8s-8.5 11.666 -8.5 18.999z" />
    <glyph glyph-name="j" unicode="j" horiz-adv-x="354" 
d="M196 645c0 8 2.5 14.5 7.5 19.5s11.833 7.5 20.5 7.5c6.66699 0 12.667 -2.5 18 -7.5s8 -11.5 8 -19.5c0 -7.33301 -2.66699 -13.666 -8 -18.999s-11.333 -8 -18 -8c-8.66699 0 -15.5 2.66699 -20.5 8s-7.5 11.666 -7.5 18.999zM56 -155
c6 -0.666992 11.667 -1.33301 17 -2c4.66699 -0.666992 9.5 -1 14.5 -1h12.5c14.667 0.666992 28.334 4.83398 41.001 12.501s23.667 17.667 33 30s16.666 26.666 21.999 42.999s8 33.5 8 51.5v522h42v-532c-1.33301 -22.667 -6 -44 -14 -64s-18.5 -37.5 -31.5 -52.5
s-27.833 -27 -44.5 -36s-34.667 -13.833 -54 -14.5h-2c-8.66699 0 -17 0.5 -25 1.5s-15.667 1.83301 -23 2.5z" />
    <glyph glyph-name="k" unicode="k" horiz-adv-x="440" 
d="M103 334l198 166h64l-159 -132l211 -368h-49l-194 338l-71 -59l1 -279h-43v691h42v-357z" />
    <glyph glyph-name="l" unicode="l" horiz-adv-x="162" 
d="M65 750h42l1 -750h-42z" />
    <glyph glyph-name="m" unicode="m" horiz-adv-x="739" 
d="M83 453l0.00195312 -26.0039c16 24.667 35.833 43.834 59.5 57.501s49.5 20.5 77.5 20.5c35.333 0 66.833 -10.5 94.5 -31.5s48.167 -47.5 61.5 -79.5c6.66699 20 15.667 37.167 27 51.5s24 26 38 35s28.667 15.667 44 20s30 6.5 44 6.5
c23.333 0 45.166 -4.66699 65.499 -14s38 -22.166 53 -38.499s26.833 -35.666 35.5 -57.999s13.334 -46.166 14.001 -71.499l2 -323h-42v323c-0.666992 19.333 -4.5 37.5 -11.5 54.5s-16.5 31.833 -28.5 44.5s-25.833 22.667 -41.5 30s-32.5 11 -50.5 11
c-16.667 0 -32.5 -3.33301 -47.5 -10s-28.5 -15.667 -40.5 -27s-22 -24.5 -30 -39.5s-13.333 -31.167 -16 -48.5v-338h-42v321c-0.666992 20 -4.5 38.5 -11.5 55.5s-16.5 31.667 -28.5 44s-26.167 22.166 -42.5 29.499s-33.5 11 -51.5 11
c-16.667 0 -32.334 -3.16699 -47.001 -9.5s-28 -15.166 -40 -26.499s-21.833 -24.5 -29.5 -39.5s-12.834 -31.5 -15.501 -49.5l1 -338h-42l-1 451v49h42v-47z" />
    <glyph glyph-name="n" unicode="n" horiz-adv-x="433" 
d="M81 429c16 25.333 36.002 44.8291 60.002 58.4961s50.333 20.5 79 20.5c23.333 0 45.166 -4.83301 65.499 -14.5s38 -22.667 53 -39s27 -35.666 36 -57.999s13.833 -46.166 14.5 -71.499l3 -325h-42l-1 325c-0.666992 20 -4.16699 38.5 -10.5 55.5s-15 31.833 -26 44.5
s-24.167 22.667 -39.5 30s-32 11 -50 11c-16.667 0 -33 -3.16699 -49 -9.5s-30.5 -15.166 -43.5 -26.499s-23.833 -24.666 -32.5 -39.999s-14.334 -32 -17.001 -50l1 -340h-42l-1 500h42v-71z" />
    <glyph glyph-name="o" unicode="o" horiz-adv-x="513" 
d="M64 247c0 -29.333 5 -57.166 15 -83.499s23.833 -49.166 41.5 -68.499s38.167 -34.666 61.5 -45.999s48.333 -17 75 -17c26 0 50.5 5.66699 73.5 17s43 26.666 60 45.999s30.5 42.166 40.5 68.499s15 54.166 15 83.499c0 30 -5 58.167 -15 84.5s-23.5 49.333 -40.5 69
s-37 35.167 -60 46.5s-47.5 17 -73.5 17c-26.667 0 -51.667 -5.66699 -75 -17s-43.833 -26.833 -61.5 -46.5s-31.5 -42.667 -41.5 -69s-15 -54.5 -15 -84.5zM22 247c0 36 6.16699 69.667 18.5 101s29.166 58.666 50.499 81.999s46.333 41.833 75 55.5s59 20.5 91 20.5
s62 -6.83301 90 -20.5s52.5 -32.167 73.5 -55.5s37.667 -50.666 50 -81.999s18.5 -65 18.5 -101c0 -35.333 -6.16699 -68.5 -18.5 -99.5s-29 -58.167 -50 -81.5s-45.5 -41.833 -73.5 -55.5s-58 -20.5 -90 -20.5s-62.333 6.83301 -91 20.5s-53.667 32.167 -75 55.5
s-38.166 50.5 -50.499 81.5s-18.5 64.167 -18.5 99.5z" />
    <glyph glyph-name="p" unicode="p" horiz-adv-x="506" 
d="M83 70c14 -6.66699 29.333 -12.6699 46 -18.0029c14 -4.66699 29.833 -9 47.5 -13s36.167 -6.33301 55.5 -7c27.333 0.666992 53 6.83398 77 18.501s45 27.334 63 47.001s32.167 42.5 42.5 68.5s15.5 54 15.5 84c0 29.333 -5.16699 57 -15.5 83s-24.5 48.667 -42.5 68
s-39 34.5 -63 45.5s-49.667 16.5 -77 16.5c-21.333 0 -41 -2.16699 -59 -6.5s-33.667 -9.16602 -47 -14.499c-16 -6 -30.333 -12.667 -43 -20v-352zM83 465.997c17.333 11.333 38.832 20.834 64.499 28.501s53.834 11.5 84.501 11.5
c33.333 -0.666992 64.5 -7.83398 93.5 -21.501s54.333 -32 76 -55s38.834 -50 51.501 -81s19 -63.833 19 -98.5c0 -36 -6.33301 -69.667 -19 -101s-29.834 -58.666 -51.501 -81.999s-47 -41.833 -76 -55.5s-60.167 -20.5 -93.5 -20.5c-29.333 0 -57 3.66699 -83 11
s-47.667 16.666 -65 27.999v-225h-41v695h40v-34z" />
    <glyph glyph-name="q" unicode="q" horiz-adv-x="515" 
d="M414 500l41 -0.000976562v-695h-41v228c-19.333 -13.333 -41.666 -23.5 -66.999 -30.5s-53.333 -10.5 -84 -10.5h3h-3c-32.667 0.666992 -63.5 7.83398 -92.5 21.501s-54.5 32 -76.5 55s-39.333 50 -52 81s-19 64.167 -19 99.5s6.33301 68.5 19 99.5s30 58.167 52 81.5
s47.5 41.833 76.5 55.5s59.833 20.5 92.5 20.5c30.667 0 59.167 -3.33301 85.5 -10s48.166 -15.667 65.499 -27v31zM414 424.999c-13.333 7.33301 -27.999 13.999 -43.999 19.999c-13.333 5.33301 -29 10 -47 14s-37 6 -57 6h-3c-27.333 0 -53 -5.66699 -77 -17
s-45 -26.833 -63 -46.5s-32.333 -42.5 -43 -68.5s-16 -54 -16 -84s5.33301 -57.833 16 -83.5s25 -48.167 43 -67.5s39 -34.666 63 -45.999s49.667 -17.333 77 -18c19.333 0 38.166 1.83301 56.499 5.5s34.5 7.83398 48.5 12.501c16.667 5.33301 32 11.666 46 18.999v354z
" />
    <glyph glyph-name="r" unicode="r" horiz-adv-x="286" 
d="M261 457c-20 6.66699 -39.502 7.5 -58.502 2.5s-36.5 -13.833 -52.5 -26.5s-29.667 -27.5 -41 -44.5s-18.666 -33.833 -21.999 -50.5l1 -338h-42l-1 500h42v-73c16 25.333 35.833 44.833 59.5 58.5s49.834 20.5 78.501 20.5c3.33301 0 10 -0.5 20 -1.5
s17 -2.16699 21 -3.5z" />
    <glyph glyph-name="s" unicode="s" horiz-adv-x="417" 
d="M340 418c-15.333 14.667 -34.001 25.833 -56.001 33.5s-45.333 11.5 -70 11.5c-34 0 -62.5 -8 -85.5 -24s-34.5 -36.667 -34.5 -62c0 -12 3 -23.667 9 -35s14.5 -21.833 25.5 -31.5s24.167 -17.834 39.5 -24.501s32 -11.334 50 -14.001
c22.667 -3.33301 43.667 -9.66602 63 -18.999s36 -20.5 50 -33.5s24.833 -27.667 32.5 -44s11.5 -33.5 11.5 -51.5c0 -20 -4.33301 -38 -13 -54s-20.5 -29.833 -35.5 -41.5s-32.333 -20.667 -52 -27s-40.5 -9.5 -62.5 -9.5c-31.333 0 -61.5 5.66699 -90.5 17
s-52.167 27.333 -69.5 48l32 25c14 -14 32 -25.667 54 -35s45.667 -14 71 -14c34.667 0 64 8.33301 88 25s36 38.667 36 66c0 12.667 -3 24.834 -9 36.501s-14.5 22.5 -25.5 32.5s-24 18.5 -39 25.5s-31.5 11.833 -49.5 14.5
c-23.333 3.33301 -44.666 9.66602 -63.999 18.999s-36 20.5 -50 33.5s-25 27.5 -33 43.5s-12 32.667 -12 50c0 18.667 4.5 35.834 13.5 51.501s21.167 29 36.5 40s33 19.5 53 25.5s41.333 9 64 9c31.333 0 60.833 -5.83301 88.5 -17.5s50.167 -26.5 67.5 -44.5z" />
    <glyph glyph-name="t" unicode="t" horiz-adv-x="340" 
d="M167 691v-198h135v-43h-135l1 -450h-40c-0.666992 57.333 -1 113.333 -1 168v282h-76v43h74v198h42z" />
    <glyph glyph-name="u" unicode="u" horiz-adv-x="450" 
d="M355 70c-15.333 -23.333 -34.999 -42.3311 -58.999 -56.998s-50.333 -22 -79 -22c-23.333 0 -45 4.83301 -65 14.5s-37.5 22.834 -52.5 39.501s-26.833 36.167 -35.5 58.5s-13.334 46.166 -14.001 71.499l-3 325h41l2 -325c0.666992 -19.333 4.33398 -37.5 11.001 -54.5
s15.667 -32 27 -45s24.666 -23.167 39.999 -30.5s32 -11 50 -11c16.667 0 32.834 3.33301 48.501 10s29.667 15.667 42 27s22.666 24.666 30.999 39.999s13.5 31.666 15.5 48.999v340h42v-452v-48h-41z" />
    <glyph glyph-name="v" unicode="v" horiz-adv-x="500" 
d="M24 500h45l179 -442l178 442h48l-203 -500h-45z" />
    <glyph glyph-name="w" unicode="w" horiz-adv-x="705" 
d="M472 0l-46 3l-78 195l-82 -198l-46 3l-201 497h45l179 -442l80 198l-98 244h48l176 -442l178 442h48z" />
    <glyph glyph-name="x" unicode="x" horiz-adv-x="444" 
d="M37 500h53l128 -206l131 206h52l-155 -249l156 -251h-50l-137 216l-132 -216h-50l157 259z" />
    <glyph glyph-name="y" unicode="y" horiz-adv-x="479" 
d="M34 -152c1.33301 -1.33301 2.66797 -2.33301 4.00098 -3s2.66602 -1.66699 3.99902 -3h2c3.33301 0 7 -0.166992 11 -0.5s8 -0.5 12 -0.5c23.333 0 46.166 7.83301 68.499 23.5s39.5 38.5 51.5 68.5l41 102l-194 471h45l169 -422l166 422h45l-192 -471l-44 -117l-2 -9
c-16 -35.333 -38.167 -62.333 -66.5 -81s-58.166 -28 -89.499 -28c-10.667 0 -22.667 1.66699 -36 5z" />
    <glyph glyph-name="z" unicode="z" horiz-adv-x="452" 
d="M45 43l312 414h-309v43h364v-43l-312 -414h312l1 -43h-367z" />
    <glyph glyph-name="braceleft" unicode="{" horiz-adv-x="223" 
d="M149 47c0 -3.33301 5.66602 -4.99902 16.999 -4.99902l1 -42c-6 0 -12.5 1.16699 -19.5 3.5s-13.667 5.5 -20 9.5s-11.5 8.83301 -15.5 14.5s-6 12.167 -6 19.5v242c0 13.333 -4.16699 24.166 -12.5 32.499s-18.833 12.5 -31.5 12.5h-20v42h20
c12.667 0 23.167 4.33301 31.5 13s12.5 19.334 12.5 32.001v225v2v3c2 12 8.83301 21.667 20.5 29s24.834 11 39.501 11v-43c-11.333 0 -17 -0.666992 -17 -2v-237c-3.33301 -8.66699 -8.83301 -16.334 -16.5 -23.001s-16.5 -10 -26.5 -10v-42
c10 0 18.833 -2.83301 26.5 -8.5s13.167 -13.5 16.5 -23.5v-255v0z" />
    <glyph glyph-name="bar" unicode="|" horiz-adv-x="131" 
d="M56 717h26v-716h-26v716z" />
    <glyph glyph-name="braceright" unicode="}" horiz-adv-x="188" 
d="M48 302c2 10 6.66895 17.832 14.002 23.499s16 8.5 26 8.5l2 42c-11.333 0 -20.666 3.33301 -27.999 10s-12 14.334 -14 23.001v237c-2 1.33301 -8.66699 2 -20 2v43c17.333 0 31.166 -3.83301 41.499 -11.5s16.5 -17.167 18.5 -28.5l2 -3v-2v-225
c0 -12.667 3.83301 -23.334 11.5 -32.001s17.5 -13 29.5 -13h21v-42h-21c-12 0 -21.833 -4.16699 -29.5 -12.5s-11.5 -19.166 -11.5 -32.499v-242c0 -13.333 -6.66699 -24.5 -20 -33.5s-27 -13.5 -41 -13.5l-1 42c5.33301 0 9.66602 0.5 12.999 1.5
s5.66602 2.16699 6.99902 3.5v255z" />
    <glyph glyph-name="asciitilde" unicode="~" horiz-adv-x="347" 
d="M272 276l-1.00195 1c-10 14 -23.167 22.833 -39.5 26.5s-31.166 1.16699 -44.499 -7.5h-1c-17.333 -12 -36.833 -17.5 -58.5 -16.5s-41.5 7.5 -59.5 19.5l9 51c10.667 -13.333 23.834 -21.833 39.501 -25.5s30.167 -1.16699 43.5 7.5h1c18 12 38 17.5 60 16.5
s42 -7.83301 60 -20.5z" />
    <glyph glyph-name="exclamdown" unicode="&#xa1;" horiz-adv-x="160" 
d="M57 671c0 6.66699 2.16797 12.334 6.50098 17.001s9.83301 7 16.5 7s12.334 -2.33301 17.001 -7s7 -10.334 7 -17.001s-2.33301 -12.167 -7 -16.5s-10.334 -6.5 -17.001 -6.5c-7.33301 0 -12.833 2.16699 -16.5 6.5s-5.83398 9.83301 -6.50098 16.5zM99.001 0h-36l-1 588
h36z" />
    <glyph glyph-name="cent" unicode="&#xa2;" horiz-adv-x="478" 
d="M240 572l47 0.00292969v-68c29.333 -3.33301 56.5 -11.833 81.5 -25.5s46.833 -30.5 65.5 -50.5l-30 -31c-14.667 17.333 -32 31.666 -52 42.999s-41.667 18.666 -65 21.999v-428c22 3.33301 42.833 10.333 62.5 21s37.167 24.667 52.5 42l30 -29
c-20 -20.667 -42.167 -37.5 -66.5 -50.5s-50.5 -21.167 -78.5 -24.5v-68h-47v68c-30 2.66699 -58.167 11.167 -84.5 25.5s-49.333 33 -69 56s-35.167 49.333 -46.5 79s-17 61.167 -17 94.5s5.66699 64.833 17 94.5s26.833 56 46.5 79s42.667 41.667 69 56
s54.5 23.166 84.5 26.499v68zM65 248.003c0 -27.333 4.5 -53.332 13.5 -77.999s21.333 -46.5 37 -65.5s34.167 -34.833 55.5 -47.5s44.333 -20.334 69 -23.001v428c-24.667 -3.33301 -47.667 -11 -69 -23s-39.833 -27.5 -55.5 -46.5s-28 -40.833 -37 -65.5
s-13.5 -51 -13.5 -79z" />
    <glyph glyph-name="sterling" unicode="&#xa3;" horiz-adv-x="556" 
d="M187 301v-259h337l1 -42h-379l-1 301h-120v42h120v348h42v-348h183v-42h-183z" />
    <glyph glyph-name="currency" unicode="&#xa4;" horiz-adv-x="833" 
 />
    <glyph glyph-name="yen" unicode="&#xa5;" horiz-adv-x="681" 
d="M172 192h146v38h-146v44h146v39l-283 378h57l246 -338l250 338h56l-283 -378v-39h146v-44h-146v-38h146v-44h-146l1 -148h-43l-1 148h-146v44z" />
    <glyph glyph-name="brokenbar" unicode="&#xa6;" horiz-adv-x="131" 
d="M56 410v307h26v-307h-26zM82 344v-343h-26v343h26z" />
    <glyph glyph-name="section" unicode="&#xa7;" horiz-adv-x="381" 
d="M292 486c-26.667 13.333 -54.001 20.002 -82.001 20.002c-15.333 0 -29 -2.33301 -41 -7c7.33301 -14 17.5 -28 30.5 -42s29.167 -25.667 48.5 -35c34.667 -17.333 62 -40.166 82 -68.499s30 -58.5 30 -90.5c0 -17.333 -3.83301 -33.833 -11.5 -49.5
s-17.167 -29.167 -28.5 -40.5c0.666992 -4 1.16699 -8 1.5 -12s0.5 -7.66699 0.5 -11c0 -20 -3.83301 -38 -11.5 -54s-18 -29.333 -31 -40s-27.833 -18.834 -44.5 -24.501s-33.667 -8.5 -51 -8.5c-31.333 0 -63 8 -95 24l18 37
c13.333 -6.66699 26.166 -11.334 38.499 -14.001s24.833 -4 37.5 -4c26.667 0 49.667 7 69 21s29 35 29 63c-9.33301 -5.33301 -19 -8.66602 -29 -9.99902s-20 -2 -30 -2c-16 0 -32 1.83301 -48 5.5s-31.667 9.5 -47 17.5l18 39c27.333 -12.667 53.333 -19 78 -19
c18.667 0 35 3.33301 49 10c-7.33301 16 -17.666 31.167 -30.999 45.5s-29.666 26.166 -48.999 35.499c-17.333 8 -33.166 18.167 -47.499 30.5s-26.5 25.5 -36.5 39.5s-17.667 28.667 -23 44s-8 30.666 -8 45.999c0 36 14 65 42 87c-2 8.66699 -3 17.334 -3 26.001
c0 18.667 3.66699 35.5 11 50.5s17.166 27.667 29.499 38s26.666 18.166 42.999 23.499s33.833 8 52.5 8c30.667 0 62.334 -7.66699 95.001 -23l-18 -41c-13.333 7.33301 -27 12.5 -41 15.5s-27 4.5 -39 4.5c-25.333 0 -47 -6.5 -65 -19.5s-27 -32.167 -27 -57.5v-3
c16.667 6 35 9 55 9c32 0 64.333 -7.66699 97 -23zM309.999 230.002c3.33301 5.33301 5.5 11 6.5 17s1.5 12 1.5 18c0 22.667 -7.83301 45.334 -23.5 68.001s-37.5 41 -65.5 55c-21.333 9.33301 -39.833 21.666 -55.5 36.999s-28.167 31.666 -37.5 48.999
c-5.33301 -5.33301 -9.33301 -12.333 -12 -21s-4 -17 -4 -25c0 -21.333 8 -43.166 24 -65.499s38 -40.5 66 -54.5c21.333 -10 40 -23 56 -39s28.333 -32.667 37 -50c2 2 4.33301 5.66699 7 11zM215.999 322.002c-25.333 12.667 -45.332 28.666 -59.999 47.999
s-22 38.666 -22 57.999c0 2.66699 0.333008 5.5 1 8.5s1.33398 5.83301 2.00098 8.5c20.667 -30.667 49.667 -54.667 87 -72l-1 1c25.333 -12.667 45.166 -29 59.499 -49s21.5 -40 21.5 -60c0 -3.33301 -0.166992 -6.16602 -0.5 -8.49902s-0.833008 -4.83301 -1.5 -7.5
c-20.667 30.667 -49.334 55.334 -86.001 74.001v-1zM328 535.001c-20.667 9.33301 -40.834 16.666 -60.501 21.999s-38.167 8 -55.5 8c-13.333 0 -26 -1 -38 -3c4 14 13 24.833 27 32.5s30 11.5 48 11.5c23.333 0 52.333 -8.33301 87 -25l30 69
c-21.333 10.667 -41.5 18.334 -60.5 23.001s-36.833 7 -53.5 7c-20 0 -39.167 -3 -57.5 -9s-34.333 -14.833 -48 -26.5s-24.5 -25.834 -32.5 -42.501s-12 -35.667 -12 -57v-9.5c0 -3 0.333008 -6.5 1 -10.5c-26.667 -23.333 -40 -54.333 -40 -93
c0 -16 2.83301 -32.5 8.5 -49.5s13.834 -33.167 24.501 -48.5s23.667 -29.666 39 -42.999s32.333 -24.666 51 -33.999v1c28.667 -14.667 50.667 -34 66 -58c-4.66699 -1.33301 -9.5 -2.33301 -14.5 -3s-9.83301 -1 -14.5 -1c-11.333 0 -24.333 2.16699 -39 6.5
s-30 10.166 -46 17.499l-30 -66c20 -11.333 39.667 -19.5 59 -24.5s37.666 -7.5 54.999 -7.5c7.33301 0 14.166 0.166992 20.499 0.5s12.833 1.5 19.5 3.5c-5.33301 -15.333 -15.166 -26.666 -29.499 -33.999s-30.833 -11 -49.5 -11c-24 0 -51.333 7.66699 -82 23l-31 -63
c42.667 -22.667 80.667 -34 114 -34c19.333 0 38.166 3.16699 56.499 9.5s34.5 15.666 48.5 27.999s25.333 27.333 34 45s13 37.834 13 60.501v8c0 2.66699 -0.333008 5.66699 -1 9c10.667 12.667 19.834 27.5 27.501 44.5s11.5 34.167 11.5 51.5c0 34 -11 66.667 -33 98
s-51 56.333 -87 75c-13.333 7.33301 -25.166 15.666 -35.499 24.999s-19.166 19 -26.499 29c3.33301 0.666992 9.33301 1 18 1c25.333 0 54.666 -8.33301 87.999 -25zM306 445.001c-16.667 8 -31.502 14.333 -44.502 19s-24.833 7.66699 -35.5 9
c8.66699 -8 20 -15.667 34 -23c19.333 -9.33301 36.833 -21 52.5 -35s29.167 -29.167 40.5 -45.5s20 -33.666 26 -51.999s9 -36.5 9 -54.5c0 -19.333 -3.5 -37.5 -10.5 -54.5s-16.167 -32.5 -27.5 -46.5v-12c0 -25.333 -4.66699 -47.833 -14 -67.5
s-21.833 -36.167 -37.5 -49.5s-33.5 -23.5 -53.5 -30.5s-40.333 -10.5 -61 -10.5c-18 0 -38.333 3.33301 -61 10s-47 17 -73 31l45 91c19.333 -9.33301 36.166 -16.166 50.499 -20.499s26.833 -6.5 37.5 -6.5c18 0 32.667 3.33301 44 10h-5
c-17.333 0 -37.166 3.16699 -59.499 9.5s-46.5 16.833 -72.5 31.5l42 91c18 -8.66699 34.667 -15.334 50 -20.001s28.666 -7 39.999 -7c-5.33301 5.33301 -11.5 10.666 -18.5 15.999s-14.833 10.333 -23.5 15c-19.333 10 -37.166 22.167 -53.499 36.5
s-30.166 29.833 -41.499 46.5s-20.166 34 -26.499 52s-9.5 36 -9.5 54c0 38.667 12.667 71.667 38 99v14c0 24 4.5 45.333 13.5 64s21 34.5 36 47.5s32.5 22.833 52.5 29.5s41 10 63 10c17.333 0 37 -3.16699 59 -9.5s47 -16.166 75 -29.499l-44 -97c-40 20 -71 30 -93 30
c-7.33301 0 -14.5 -0.833008 -21.5 -2.5s-13.167 -3.83398 -18.5 -6.50098h3c17.333 0 37.5 -3.33301 60.5 -10s47.833 -16 74.5 -28zM220.998 336.001c12 -5.33301 23.168 -11.667 33.501 -19s19.833 -15 28.5 -23c-5.33301 12 -13.5 23.833 -24.5 35.5
s-24.833 21.5 -41.5 29.5l1 -1c-12.667 5.33301 -24.167 11.666 -34.5 18.999s-20.166 15 -29.499 23c5.33301 -11.333 13.666 -22.666 24.999 -33.999s25.666 -21.333 42.999 -30h-1z" />
    <glyph glyph-name="dieresis" unicode="&#xa8;" horiz-adv-x="263" 
d="M38 650c0 7.33301 2.83301 13.666 8.5 18.999s12.5 8 20.5 8c7.33301 0 14 -2.66699 20 -8s9 -11.666 9 -18.999s-3 -13.666 -9 -18.999s-12.667 -8 -20 -8c-8 0 -14.833 2.66699 -20.5 8s-8.5 11.666 -8.5 18.999zM172 650c0 7.33301 2.83301 13.666 8.5 18.999
s12.5 8 20.5 8c7.33301 0 14 -2.66699 20 -8s9 -11.666 9 -18.999s-3 -13.666 -9 -18.999s-12.667 -8 -20 -8c-8 0 -14.833 2.66699 -20.5 8s-8.5 11.666 -8.5 18.999z" />
    <glyph glyph-name="copyright" unicode="&#xa9;" horiz-adv-x="833" 
 />
    <glyph glyph-name="ordfeminine" unicode="&#xaa;" horiz-adv-x="179" 
d="M124 320l0.000976562 6.00098c-9.33301 -6.66699 -21.666 -10 -36.999 -10c-17.333 0 -32 5.66699 -44 17s-18 25.333 -18 42c0 15.333 6 28.5 18 39.5s27.333 16.5 46 16.5h35v6c0 11.333 -3.16699 21.5 -9.5 30.5s-13.833 13.5 -22.5 13.5s-16.5 -0.333008 -23.5 -1
s-14.167 -2.33398 -21.5 -5.00098l-5 25c14 4 30.667 6 50 6c15.333 0 28.166 -6.33301 38.499 -19s16.166 -29.334 17.499 -50.001c-0.666992 -6 -1 -12 -1 -18v-38c0 -12.667 1 -25.167 3 -37.5s4.66699 -20.166 8 -23.499h-34zM87.001 407.001
c-10 0 -18.667 -3.5 -26 -10.5s-11 -14.167 -11 -21.5c0 -8.66699 3.66699 -16.334 11 -23.001s16 -10 26 -10c9.33301 0 17.833 3.33301 25.5 10s11.5 14.334 11.5 23.001v32h-37z" />
    <glyph glyph-name="guillemotleft" unicode="&#xab;" horiz-adv-x="532" 
d="M463 501l28 -32l-233 -196l194 -231l-32 -28l-221 264zM293 501l28 -32l-233 -196l194 -231l-32 -28l-221 264z" />
    <glyph glyph-name="logicalnot" unicode="&#xac;" horiz-adv-x="662" 
d="M622 163h-42v182h-539v42h581v-224z" />
    <glyph glyph-name="registered" unicode="&#xae;" horiz-adv-x="833" 
 />
    <glyph glyph-name="degree" unicode="&#xb0;" horiz-adv-x="250" 
d="M54 596c0 -17.333 7.33301 -33.166 22 -47.499s31.667 -21.5 51 -21.5c8 0 16 2 24 6s15 9.16699 21 15.5s11 13.666 15 21.999s6 16.833 6 25.5c0 9.33301 -2 18.5 -6 27.5s-9 17 -15 24s-13 12.5 -21 16.5s-16 6 -24 6c-19.333 0 -36.333 -7.5 -51 -22.5
s-22 -32.167 -22 -51.5zM26 596c0 28.667 9.50195 52.334 28.502 71.001s43.167 28 72.5 28c26 0 48.333 -9.33301 67 -28s28 -42.334 28 -71.001c0 -13.333 -2.5 -25.666 -7.5 -36.999s-11.833 -21.333 -20.5 -30s-18.834 -15.5 -30.501 -20.5s-23.834 -7.5 -36.501 -7.5
c-14.667 0 -28.167 2.5 -40.5 7.5s-23 11.833 -32 20.5s-16 18.667 -21 30s-7.5 23.666 -7.5 36.999z" />
    <glyph glyph-name="plusminus" unicode="&#xb1;" horiz-adv-x="452" 
d="M248 308h-42v152h-151v42h151v151h42v-151h152v-42h-152v-152zM54 154v42h345v-42h-345z" />
    <glyph glyph-name="twosuperior" unicode="&#xb2;" horiz-adv-x="280" 
d="M242 347v-30h-209v30l155 173c7.33301 8 13.166 17.5 17.499 28.5s6.5 21.167 6.5 30.5c0 11.333 -2.5 22.166 -7.5 32.499s-11.5 19.333 -19.5 27s-17.333 13.834 -28 18.501s-21.667 7 -33 7s-22.666 -2.5 -33.999 -7.5s-22.333 -12.833 -33 -23.5l-24 25
c13.333 11.333 27.333 20.333 42 27s31 10 49 10c16.667 0 32.167 -3 46.5 -9s26.833 -14.333 37.5 -25s19 -23 25 -37s9 -29 9 -45c0 -15.333 -3.33301 -30.5 -10 -45.5s-13.667 -27.167 -21 -36.5l-133 -150h164z" />
    <glyph glyph-name="threesuperior" unicode="&#xb3;" horiz-adv-x="265" 
d="M45 374c8 -9.33301 18.168 -16.998 30.501 -22.998s24.833 -9 37.5 -9c10 0 20 2 30 6s18.833 9.33301 26.5 16s13.834 14.5 18.501 23.5s7 18.5 7 28.5s-2.16699 19.333 -6.5 28s-10 16.334 -17 23.001s-15 12.167 -24 16.5s-18.167 7.16602 -27.5 8.49902h-54v31h54
c10 0.666992 19.5 3 28.5 7s17 9.16699 24 15.5s12.667 13.666 17 21.999s6.5 16.833 6.5 25.5s-2.33301 17.167 -7 25.5s-10.834 15.666 -18.501 21.999s-16.334 11.333 -26.001 15s-19.834 5.5 -30.501 5.5c-12.667 0 -25.5 -2.66699 -38.5 -8
s-24.5 -13.666 -34.5 -24.999l-23 24c24 26 56 39 96 39c16 0 30.833 -2.5 44.5 -7.5s25.834 -12 36.501 -21s19 -19.333 25 -31s9 -24.5 9 -38.5c0 -40 -18.667 -68.667 -56 -86c14.667 -10 27.167 -23.167 37.5 -39.5s15.5 -33.5 15.5 -51.5
c0 -14.667 -3 -28.334 -9 -41.001s-14.167 -23.667 -24.5 -33s-22.333 -16.666 -36 -21.999s-28.167 -8 -43.5 -8c-20 0 -38 3.66699 -54 11s-29.667 17.666 -41 30.999l19 20h8z" />
    <glyph glyph-name="acute" unicode="&#xb4;" horiz-adv-x="209" 
d="M66 553h-23l66 87h66z" />
    <glyph glyph-name="mu" unicode="&#xb5;" horiz-adv-x="496" 
d="M126 -195l-40.999 0.00195312v695h42v-361c0 -6 4 -14.833 12 -26.5s18.5 -23.334 31.5 -35.001s27.667 -21.834 44 -30.501s32.833 -13 49.5 -13c18 0 34.667 3.66699 50 11s28.666 17.5 39.999 30.5s20.333 28 27 45s10.334 35.167 11.001 54.5l2 325h41l-3 -325
c-0.666992 -25.333 -5.33398 -49.166 -14.001 -71.499s-20.5 -41.833 -35.5 -58.5s-32.5 -29.834 -52.5 -39.501s-41.667 -14.5 -65 -14.5c-28.667 0 -55 7.33301 -79 22s-43.667 33.667 -59 57z" />
    <glyph glyph-name="paragraph" unicode="&#xb6;" horiz-adv-x="382" 
d="M263 0v690h40v-690h-40zM178 655c-14.667 0 -28.5 -3.33301 -41.5 -10s-24.5 -15.5 -34.5 -26.5s-17.833 -24.167 -23.5 -39.5s-8.5 -31.333 -8.5 -48c0 -17.333 2.83301 -33.5 8.5 -48.5s13.5 -28 23.5 -39s21.5 -19.833 34.5 -26.5s26.833 -10 41.5 -10v248zM193 0
v361.999c-22.667 0 -44 4.33301 -64 13s-37.333 20.5 -52 35.5s-26.334 32.5 -35.001 52.5s-13 41.333 -13 64s4.33301 44 13 64s20.334 37.333 35.001 52s32 26.334 52 35.001s41.333 13 64 13h40v-691h-40z" />
    <glyph glyph-name="periodcentered" unicode="&#xb7;" horiz-adv-x="225" 
d="M62 314c0 12.667 5.16699 24.167 15.5 34.5s22.833 15.5 37.5 15.5c14 0 26.5 -5.16699 37.5 -15.5s16.5 -21.833 16.5 -34.5s-5.5 -24 -16.5 -34s-23.5 -15 -37.5 -15c-14.667 0 -27.167 5 -37.5 15s-15.5 21.333 -15.5 34z" />
    <glyph glyph-name="onesuperior" unicode="&#xb9;" horiz-adv-x="263" 
d="M36 587l126 104h42v-300h-42v246l-96 -79z" />
    <glyph glyph-name="ordmasculine" unicode="&#xba;" horiz-adv-x="232" 
d="M51 406c0 -17.333 6.66797 -33.166 20.001 -47.499s28.666 -21.5 45.999 -21.5c7.33301 0 14.5 2 21.5 6s13.333 9.16699 19 15.5s10.334 13.666 14.001 21.999s5.5 16.833 5.5 25.5c0 10 -1.83301 19.5 -5.5 28.5s-8.33398 17 -14.001 24s-12 12.5 -19 16.5
s-14.167 6 -21.5 6c-8.66699 0 -17 -2 -25 -6s-15 -9.5 -21 -16.5s-10.833 -15 -14.5 -24s-5.5 -18.5 -5.5 -28.5zM26.001 406c0 29.333 8.66699 53.332 26 71.999s39 28 65 28c12 0 23.167 -2.5 33.5 -7.5s19.333 -12 27 -21s13.834 -19.5 18.501 -31.5s7 -25.333 7 -40
c0 -13.333 -2.33301 -25.666 -7 -36.999s-10.834 -21.333 -18.501 -30s-16.667 -15.5 -27 -20.5s-21.5 -7.5 -33.5 -7.5c-26 0 -47.667 9.33301 -65 28s-26 41 -26 67z" />
    <glyph glyph-name="guillemotright" unicode="&#xbb;" horiz-adv-x="524" 
d="M321 278l-221 -264l-32 28l194 231l-233 196l28 32zM491 278l-221 -264l-32 28l194 231l-233 196l28 32z" />
    <glyph glyph-name="onequarter" unicode="&#xbc;" horiz-adv-x="382" 
d="M291 335l-109 -187h103v77h21v-77h49v-21h-49l1 -127h-21l-1 127h-127v21l115 197zM34 454l63 52h21v-293h-21v266l-48 -39z" />
    <glyph glyph-name="onehalf" unicode="&#xbd;" horiz-adv-x="355" 
d="M22 455l63 52h21v-294h-21v267l-48 -39zM164 20l161 0.00195312l1 -20h-189l-1 20l146 163c6.66699 7.33301 12 16 16 26s6 20.333 6 31c0 24.667 -8.5 45.167 -25.5 61.5s-37.833 24.5 -62.5 24.5c-23.333 0 -43.666 -8 -60.999 -24l-15 15
c10 9.33301 21.333 16.666 34 21.999s26.667 8 42 8c14.667 0 28.667 -2.83301 42 -8.5s25 -13.334 35 -23.001s17.833 -21 23.5 -34s8.5 -26.833 8.5 -41.5s-2.83301 -28 -8.5 -40s-12.834 -22.667 -21.501 -32z" />
    <glyph glyph-name="threequarters" unicode="&#xbe;" horiz-adv-x="458" 
d="M47 204c7.33301 -8.66699 16.8301 -15.668 28.4971 -21.001s24.167 -8 37.5 -8c12 0 23.167 2 33.5 6s19.333 9.5 27 16.5s13.667 15 18 24s6.5 18.833 6.5 29.5c0 14 -3.5 26.167 -10.5 36.5s-16.333 18.833 -28 25.5s-25 11.167 -40 13.5
s-30.167 2.16602 -45.5 -0.500977v21h46c22 1.33301 40.667 8.66602 56 21.999s23 29 23 47c0 20 -8.16699 36.833 -24.5 50.5s-36.166 20.5 -59.499 20.5c-28.667 0 -51.334 -9.33301 -68.001 -28l-15 15c20.667 22 48.334 33 83.001 33
c14.667 0 28.334 -2.33301 41.001 -7s23.834 -11.167 33.501 -19.5s17.334 -18 23.001 -29s8.5 -22.833 8.5 -35.5c0 -17.333 -5.5 -33.166 -16.5 -47.499s-25.167 -25.166 -42.5 -32.499c17.333 -8 31.166 -19.5 41.499 -34.5s15.5 -31.833 15.5 -50.5
c0 -13.333 -2.83301 -26 -8.5 -38s-13.167 -22.333 -22.5 -31s-20.5 -15.5 -33.5 -20.5s-26.833 -7.5 -41.5 -7.5c-16.667 0 -32 3.33301 -46 10s-25.667 15.334 -35 26.001zM233.997 128.999v21l115 197l18 -10l-108 -187h102v77h21v-77h50v-21h-50v-127h-21v127h-127z" />
    <glyph glyph-name="questiondown" unicode="&#xbf;" horiz-adv-x="432" 
d="M231 691l93.999 -322.997v-43h-99c-19.333 -0.666992 -37.333 -4.83398 -54 -12.501s-31.167 -18.167 -43.5 -31.5s-22.166 -28.666 -29.499 -45.999s-11 -36 -11 -56s3.66699 -38.833 11 -56.5s17.5 -33.167 30.5 -46.5s28.167 -23.833 45.5 -31.5s36 -11.5 56 -11.5
c26.667 0 50.5 6.66699 71.5 20s38.167 30.666 51.5 51.999l30 -31c-16.667 -24.667 -38.167 -44.834 -64.5 -60.501s-55.833 -23.5 -88.5 -23.5c-25.333 0 -49 5 -71 15s-41.5 23.667 -58.5 41s-30.333 37.333 -40 60s-14.5 47 -14.5 73c0 25.333 4.83301 49.333 14.5 72
s22.667 42.667 39 60s35.333 31.166 57 41.499s44.5 15.5 68.5 15.5h56l-94 323h43zM210.999 786.003c0 -8 -2.5 -14.667 -7.5 -20s-11.167 -8 -18.5 -8c-8.66699 0 -15.5 2.66699 -20.5 8s-7.5 12 -7.5 20c0 8.66699 2.5 15.667 7.5 21s11.833 8 20.5 8
c7.33301 0 13.5 -2.66699 18.5 -8s7.5 -12.333 7.5 -21z" />
    <glyph glyph-name="Agrave" unicode="&#xc0;" 
d="M410 329l-107 288l-106 -288h213zM286 691h35l256 -691h-44l-108 287h-243l-106 -287h-44zM190 831h66l66 -87h-23z" />
    <glyph glyph-name="Aacute" unicode="&#xc1;" 
d="M410 329l-107 288l-106 -288h213zM286 691h35l256 -691h-44l-108 287h-243l-106 -287h-44zM312 744h-23l66 87h66z" />
    <glyph glyph-name="Acircumflex" unicode="&#xc2;" 
d="M410 329l-107 288l-106 -288h213zM286 691h35l256 -691h-44l-108 287h-243l-106 -287h-44z" />
    <glyph glyph-name="Atilde" unicode="&#xc3;" 
d="M389 753l-1.00195 1c-10 14 -23.167 22.833 -39.5 26.5s-31.166 1.16699 -44.499 -7.5h-1c-17.333 -12 -36.833 -17.5 -58.5 -16.5s-41.5 7.5 -59.5 19.5l9 51c10.667 -13.333 23.834 -21.833 39.501 -25.5s30.167 -1.16699 43.5 7.5h1c18 12 38 17.5 60 16.5
s42 -7.83301 60 -20.5zM409.998 329l-107 288l-106 -288h213zM285.998 691h35l256 -691h-44l-108 287h-243l-106 -287h-44z" />
    <glyph glyph-name="Adieresis" unicode="&#xc4;" 
d="M410 329l-107 288l-106 -288h213zM286 691h35l256 -691h-44l-108 287h-243l-106 -287h-44zM200 763c0 7.33301 2.83301 13.666 8.5 18.999s12.5 8 20.5 8c7.33301 0 14 -2.66699 20 -8s9 -11.666 9 -18.999s-3 -13.666 -9 -18.999s-12.667 -8 -20 -8
c-8 0 -14.833 2.66699 -20.5 8s-8.5 11.666 -8.5 18.999zM334 763c0 7.33301 2.83301 13.666 8.5 18.999s12.5 8 20.5 8c7.33301 0 14 -2.66699 20 -8s9 -11.666 9 -18.999s-3 -13.666 -9 -18.999s-12.667 -8 -20 -8c-8 0 -14.833 2.66699 -20.5 8s-8.5 11.666 -8.5 18.999z
" />
    <glyph glyph-name="Aring" unicode="&#xc5;" 
d="M410 329l-107 288l-106 -288h213zM286 691h35l256 -691h-44l-108 287h-243l-106 -287h-44z" />
    <glyph glyph-name="AE" unicode="&#xc6;" horiz-adv-x="1081" 
d="M541 651h-229l-115 -322h335zM549 691h382v-40h-357v-262h305v-42h-305v-305h357l1 -42h-399l-1 287h-350l-106 -287h-44l254 691h263z" />
    <glyph glyph-name="Ccedilla" unicode="&#xc7;" horiz-adv-x="634" 
d="M554 570l-0.995117 1.00684c-24.667 26 -52.834 46.5 -84.501 61.5s-65.167 22.5 -100.5 22.5c-38 0 -73.667 -8.33301 -107 -25s-62.333 -39.334 -87 -68.001s-44.167 -61.834 -58.5 -99.501s-21.5 -77.834 -21.5 -120.501c0 -41.333 7 -80.833 21 -118.5
s33.333 -70.834 58 -99.501s53.667 -51.334 87 -68.001s69.333 -25 108 -25c35.333 0 68.666 7.33301 99.999 22s59 34.667 83 60l30 -28c-30 -32 -63.833 -55.667 -101.5 -71s-78.5 -23 -122.5 -23l-9 -23c2.66699 0 6.83398 -1.33301 12.501 -4s11.5 -6.5 17.5 -11.5
s11.167 -11 15.5 -18s6.5 -14.5 6.5 -22.5c0 -9.33301 -3.5 -18.833 -10.5 -28.5s-19.833 -19.834 -38.5 -30.501l-33 25c2.66699 0 6.66699 0.5 12 1.5s10.666 3 15.999 6s10.166 6.66699 14.499 11s6.5 10.166 6.5 17.499c0 6 -2 11 -6 15s-8.66699 7.16699 -14 9.5
s-10.833 4 -16.5 5s-10.5 1.5 -14.5 1.5h-8l1 51c-36 8 -69.667 22.333 -101 43s-58.5 46.167 -81.5 76.5s-41 64.833 -54 103.5s-19.5 79.667 -19.5 123c0 50 8.33301 96.5 25 139.5s39.167 80.333 67.5 112s61.666 56.5 99.999 74.5s79.166 27 122.499 27
c41.333 0 80.333 -8.33301 117 -25s69 -40 97 -70c0 -0.666992 0.166992 -1 0.5 -1s0.5 -0.333008 0.5 -1z" />
    <glyph glyph-name="Egrave" unicode="&#xc8;" horiz-adv-x="485" 
d="M391 347h-305v-305h357l1 -42h-399l-1 691h399v-40h-357v-262h305v-42zM121 831h66l66 -87h-23z" />
    <glyph glyph-name="Eacute" unicode="&#xc9;" horiz-adv-x="485" 
d="M391 347h-305v-305h357l1 -42h-399l-1 691h399v-40h-357v-262h305v-42zM229 744h-23l66 87h66z" />
    <glyph glyph-name="Ecircumflex" unicode="&#xca;" horiz-adv-x="485" 
d="M391 347h-305v-305h357l1 -42h-399l-1 691h399v-40h-357v-262h305v-42zM242 865l108 -107l-26 -25l-82 83l-83 -83l-24 26z" />
    <glyph glyph-name="Edieresis" unicode="&#xcb;" horiz-adv-x="485" 
d="M391 347h-305v-305h357l1 -42h-399l-1 691h399v-40h-357v-262h305v-42zM144 764c0 7.33301 2.83301 13.666 8.5 18.999s12.5 8 20.5 8c7.33301 0 14 -2.66699 20 -8s9 -11.666 9 -18.999s-3 -13.666 -9 -18.999s-12.667 -8 -20 -8c-8 0 -14.833 2.66699 -20.5 8
s-8.5 11.666 -8.5 18.999zM278 764c0 7.33301 2.83301 13.666 8.5 18.999s12.5 8 20.5 8c7.33301 0 14 -2.66699 20 -8s9 -11.666 9 -18.999s-3 -13.666 -9 -18.999s-12.667 -8 -20 -8c-8 0 -14.833 2.66699 -20.5 8s-8.5 11.666 -8.5 18.999z" />
    <glyph glyph-name="Igrave" unicode="&#xcc;" horiz-adv-x="131" 
d="M100 0h-42l-1 691h42zM-24 831h66l66 -87h-23z" />
    <glyph glyph-name="Iacute" unicode="&#xcd;" horiz-adv-x="154" 
d="M92 0h-42l-1 691h42zM83 744h-23l66 87h66z" />
    <glyph glyph-name="Icircumflex" unicode="&#xce;" horiz-adv-x="138" 
d="M92 0h-42l-1 691h42z" />
    <glyph glyph-name="Idieresis" unicode="&#xcf;" horiz-adv-x="138" 
d="M92 0h-42l-1 691h42zM-26 763c0 7.33301 2.83301 13.666 8.5 18.999s12.5 8 20.5 8c7.33301 0 14 -2.66699 20 -8s9 -11.666 9 -18.999s-3 -13.666 -9 -18.999s-12.667 -8 -20 -8c-8 0 -14.833 2.66699 -20.5 8s-8.5 11.666 -8.5 18.999zM108 763
c0 7.33301 2.83301 13.666 8.5 18.999s12.5 8 20.5 8c7.33301 0 14 -2.66699 20 -8s9 -11.666 9 -18.999s-3 -13.666 -9 -18.999s-12.667 -8 -20 -8c-8 0 -14.833 2.66699 -20.5 8s-8.5 11.666 -8.5 18.999z" />
    <glyph glyph-name="Eth" unicode="&#xd0;" horiz-adv-x="653" 
d="M43 274v42h68v375h255c33.333 -0.666992 64.666 -10 93.999 -28s54.833 -42.5 76.5 -73.5s38.834 -67.333 51.501 -109s19 -86.167 19 -133.5s-6.16699 -91.833 -18.5 -133.5s-29.333 -78 -51 -109s-47 -55.667 -76 -74s-60.167 -27.833 -93.5 -28.5l1 -2h-257l-1 274
h-68zM153 649v-332.998h174v-42h-174v-232h215v2c27.333 0.666992 53 9.16699 77 25.5s44.833 38.166 62.5 65.499s31.667 59.166 42 95.499s15.5 75.166 15.5 116.499c0 40.667 -5.16699 79.334 -15.5 116.001s-24.5 68.667 -42.5 96s-39 49 -63 65s-50 24.333 -78 25h-213
z" />
    <glyph glyph-name="Ntilde" unicode="&#xd1;" horiz-adv-x="537" 
d="M88 691l358 -607v607h42l1 -691h-42l-359 610l1 -610h-41l-1 691h41zM370 731l-1.00195 1c-10 14 -23.167 22.833 -39.5 26.5s-31.166 1.16699 -44.499 -7.5h-1c-17.333 -12 -36.833 -17.5 -58.5 -16.5s-41.5 7.5 -59.5 19.5l9 51
c10.667 -13.333 23.834 -21.833 39.501 -25.5s30.167 -1.16699 43.5 7.5h1c18 12 38 17.5 60 16.5s42 -7.83301 60 -20.5z" />
    <glyph glyph-name="Ograve" unicode="&#xd2;" horiz-adv-x="690" 
d="M530 570c-23.333 26 -51.1689 46.168 -83.502 60.501s-66.833 21.5 -103.5 21.5c-37.333 0 -72.5 -8 -105.5 -24s-61.833 -37.833 -86.5 -65.5s-44 -60.167 -58 -97.5s-21 -77.333 -21 -120c0 -43.333 7 -83.833 21 -121.5s33.167 -70.5 57.5 -98.5s53 -50.167 86 -66.5
s68.5 -24.5 106.5 -24.5c38.667 0 74.834 8.16699 108.501 24.5s62.667 38.5 87 66.5s43.5 60.833 57.5 98.5s21 78.167 21 121.5c0 45.333 -7.66699 87.166 -23 125.499s-36.666 71.5 -63.999 99.5zM560.997 88.001c-28.667 -31.333 -61.499 -55.333 -98.499 -72
s-76.833 -25 -119.5 -25c-42 0 -82 9 -120 27s-71.333 42.833 -100 74.5s-51.5 69.167 -68.5 112.5s-25.5 90 -25.5 140c0 48.667 8.16699 94.167 24.5 136.5s38.833 79.333 67.5 111s62 56.667 100 75s78.667 27.5 122 27.5c44.667 0 86.167 -9.16699 124.5 -27.5
s71.5 -43.166 99.5 -74.499s50 -68.333 66 -111s24 -88.334 24 -137.001c0 -52 -8.33301 -99.833 -25 -143.5s-40.334 -81.5 -71.001 -113.5zM211.998 831.001h66l66 -87h-23z" />
    <glyph glyph-name="Oacute" unicode="&#xd3;" horiz-adv-x="690" 
d="M530 570c-23.333 26 -51.1689 46.168 -83.502 60.501s-66.833 21.5 -103.5 21.5c-37.333 0 -72.5 -8 -105.5 -24s-61.833 -37.833 -86.5 -65.5s-44 -60.167 -58 -97.5s-21 -77.333 -21 -120c0 -43.333 7 -83.833 21 -121.5s33.167 -70.5 57.5 -98.5s53 -50.167 86 -66.5
s68.5 -24.5 106.5 -24.5c38.667 0 74.834 8.16699 108.501 24.5s62.667 38.5 87 66.5s43.5 60.833 57.5 98.5s21 78.167 21 121.5c0 45.333 -7.66699 87.166 -23 125.499s-36.666 71.5 -63.999 99.5zM560.997 88.001c-28.667 -31.333 -61.499 -55.333 -98.499 -72
s-76.833 -25 -119.5 -25c-42 0 -82 9 -120 27s-71.333 42.833 -100 74.5s-51.5 69.167 -68.5 112.5s-25.5 90 -25.5 140c0 48.667 8.16699 94.167 24.5 136.5s38.833 79.333 67.5 111s62 56.667 100 75s78.667 27.5 122 27.5c44.667 0 86.167 -9.16699 124.5 -27.5
s71.5 -43.166 99.5 -74.499s50 -68.333 66 -111s24 -88.334 24 -137.001c0 -52 -8.33301 -99.833 -25 -143.5s-40.334 -81.5 -71.001 -113.5zM366.998 744.001h-23l66 87h66z" />
    <glyph glyph-name="Ocircumflex" unicode="&#xd4;" horiz-adv-x="690" 
d="M530 570c-23.333 26 -51.1689 46.168 -83.502 60.501s-66.833 21.5 -103.5 21.5c-37.333 0 -72.5 -8 -105.5 -24s-61.833 -37.833 -86.5 -65.5s-44 -60.167 -58 -97.5s-21 -77.333 -21 -120c0 -43.333 7 -83.833 21 -121.5s33.167 -70.5 57.5 -98.5s53 -50.167 86 -66.5
s68.5 -24.5 106.5 -24.5c38.667 0 74.834 8.16699 108.501 24.5s62.667 38.5 87 66.5s43.5 60.833 57.5 98.5s21 78.167 21 121.5c0 45.333 -7.66699 87.166 -23 125.499s-36.666 71.5 -63.999 99.5zM560.997 88.001c-28.667 -31.333 -61.499 -55.333 -98.499 -72
s-76.833 -25 -119.5 -25c-42 0 -82 9 -120 27s-71.333 42.833 -100 74.5s-51.5 69.167 -68.5 112.5s-25.5 90 -25.5 140c0 48.667 8.16699 94.167 24.5 136.5s38.833 79.333 67.5 111s62 56.667 100 75s78.667 27.5 122 27.5c44.667 0 86.167 -9.16699 124.5 -27.5
s71.5 -43.166 99.5 -74.499s50 -68.333 66 -111s24 -88.334 24 -137.001c0 -52 -8.33301 -99.833 -25 -143.5s-40.334 -81.5 -71.001 -113.5zM343.998 865.001l108 -107l-26 -25l-82 83l-83 -83l-24 26z" />
    <glyph glyph-name="Otilde" unicode="&#xd5;" horiz-adv-x="690" 
d="M530 570c-23.333 26 -51.1689 46.168 -83.502 60.501s-66.833 21.5 -103.5 21.5c-37.333 0 -72.5 -8 -105.5 -24s-61.833 -37.833 -86.5 -65.5s-44 -60.167 -58 -97.5s-21 -77.333 -21 -120c0 -43.333 7 -83.833 21 -121.5s33.167 -70.5 57.5 -98.5s53 -50.167 86 -66.5
s68.5 -24.5 106.5 -24.5c38.667 0 74.834 8.16699 108.501 24.5s62.667 38.5 87 66.5s43.5 60.833 57.5 98.5s21 78.167 21 121.5c0 45.333 -7.66699 87.166 -23 125.499s-36.666 71.5 -63.999 99.5zM560.997 88.001c-28.667 -31.333 -61.499 -55.333 -98.499 -72
s-76.833 -25 -119.5 -25c-42 0 -82 9 -120 27s-71.333 42.833 -100 74.5s-51.5 69.167 -68.5 112.5s-25.5 90 -25.5 140c0 48.667 8.16699 94.167 24.5 136.5s38.833 79.333 67.5 111s62 56.667 100 75s78.667 27.5 122 27.5c44.667 0 86.167 -9.16699 124.5 -27.5
s71.5 -43.166 99.5 -74.499s50 -68.333 66 -111s24 -88.334 24 -137.001c0 -52 -8.33301 -99.833 -25 -143.5s-40.334 -81.5 -71.001 -113.5zM445.998 732.001l-1.00195 1c-10 14 -23.167 22.833 -39.5 26.5s-31.166 1.16699 -44.499 -7.5h-1
c-17.333 -12 -36.833 -17.5 -58.5 -16.5s-41.5 7.5 -59.5 19.5l9 51c10.667 -13.333 23.834 -21.833 39.501 -25.5s30.167 -1.16699 43.5 7.5h1c18 12 38 17.5 60 16.5s42 -7.83301 60 -20.5z" />
    <glyph glyph-name="Odieresis" unicode="&#xd6;" horiz-adv-x="690" 
d="M530 570c-23.333 26 -51.1689 46.168 -83.502 60.501s-66.833 21.5 -103.5 21.5c-37.333 0 -72.5 -8 -105.5 -24s-61.833 -37.833 -86.5 -65.5s-44 -60.167 -58 -97.5s-21 -77.333 -21 -120c0 -43.333 7 -83.833 21 -121.5s33.167 -70.5 57.5 -98.5s53 -50.167 86 -66.5
s68.5 -24.5 106.5 -24.5c38.667 0 74.834 8.16699 108.501 24.5s62.667 38.5 87 66.5s43.5 60.833 57.5 98.5s21 78.167 21 121.5c0 45.333 -7.66699 87.166 -23 125.499s-36.666 71.5 -63.999 99.5zM560.997 88.001c-28.667 -31.333 -61.499 -55.333 -98.499 -72
s-76.833 -25 -119.5 -25c-42 0 -82 9 -120 27s-71.333 42.833 -100 74.5s-51.5 69.167 -68.5 112.5s-25.5 90 -25.5 140c0 48.667 8.16699 94.167 24.5 136.5s38.833 79.333 67.5 111s62 56.667 100 75s78.667 27.5 122 27.5c44.667 0 86.167 -9.16699 124.5 -27.5
s71.5 -43.166 99.5 -74.499s50 -68.333 66 -111s24 -88.334 24 -137.001c0 -52 -8.33301 -99.833 -25 -143.5s-40.334 -81.5 -71.001 -113.5zM246.998 764.001c0 7.33301 2.83301 13.666 8.5 18.999s12.5 8 20.5 8c7.33301 0 14 -2.66699 20 -8s9 -11.666 9 -18.999
s-3 -13.666 -9 -18.999s-12.667 -8 -20 -8c-8 0 -14.833 2.66699 -20.5 8s-8.5 11.666 -8.5 18.999zM380.998 764.001c0 7.33301 2.83301 13.666 8.5 18.999s12.5 8 20.5 8c7.33301 0 14 -2.66699 20 -8s9 -11.666 9 -18.999s-3 -13.666 -9 -18.999s-12.667 -8 -20 -8
c-8 0 -14.833 2.66699 -20.5 8s-8.5 11.666 -8.5 18.999z" />
    <glyph glyph-name="multiply" unicode="&#xd7;" horiz-adv-x="367" 
d="M70 178l-30 29l107 108l-106 106l29 30l107 -107l107 107l30 -29l-107 -107l107 -108l-29 -29l-108 107z" />
    <glyph glyph-name="Oslash" unicode="&#xd8;" horiz-adv-x="690" 
d="M561 88c-28.667 -31.333 -61.5 -55.332 -98.5 -71.999s-76.833 -25 -119.5 -25c-17.333 0 -34.333 1.66699 -51 5s-32.667 7.66602 -48 12.999l-2 -9h-46l9 27c-25.333 13.333 -48.666 30.833 -69.999 52.5s-39.833 46.167 -55.5 73.5s-28 57.333 -37 90
s-13.5 66.667 -13.5 102c0 48.667 8.16699 94.167 24.5 136.5s38.833 79.333 67.5 111s62 56.667 100 75s78.667 27.5 122 27.5c34 0 67.333 -5.66699 100 -17l5 13h45l-11 -30c54.667 -30.667 97.5 -73.5 128.5 -128.5s46.5 -117.5 46.5 -187.5
c0 -52 -8.33301 -99.833 -25 -143.5s-40.334 -81.5 -71.001 -113.5zM530 570.001c-20 20.667 -41.002 37.334 -63.002 50.001l-209 -571c26.667 -10 55 -15 85 -15c38.667 0 74.834 8.16699 108.501 24.5s62.667 38.5 87 66.5s43.5 60.833 57.5 98.5s21 78.167 21 121.5
c0 45.333 -7.66699 87.166 -23 125.499s-36.666 71.5 -63.999 99.5zM342.998 652.001c-37.333 0 -72.501 -8 -105.501 -24s-61.833 -37.833 -86.5 -65.5s-44 -60.167 -58 -97.5s-21 -77.333 -21 -120c0 -30.667 3.66699 -60 11 -88s17.5 -54 30.5 -78s28.5 -45.667 46.5 -65
s37.667 -35.333 59 -48l209 571c-27.333 10 -55.666 15 -84.999 15z" />
    <glyph glyph-name="Ugrave" unicode="&#xd9;" horiz-adv-x="598" 
d="M88 173c1.33301 -19.333 7.83398 -37.5 19.501 -54.5s27 -31.667 46 -44s41.167 -22.166 66.5 -29.499s52.333 -11 81 -11c27.333 0 53.333 3.66699 78 11s46.5 17.166 65.5 29.499s34.167 27 45.5 44s17.666 35.167 18.999 54.5v518h42v-518
c-1.33301 -24.667 -8.66602 -48 -21.999 -70s-31.333 -41.333 -54 -58s-49 -29.834 -79 -39.501s-61.667 -14.5 -95 -14.5c-34.667 0 -67.334 4.83301 -98.001 14.5s-57.5 22.834 -80.5 39.501s-41.5 36 -55.5 58s-22 45.333 -24 70v518h45v-518zM184.001 831h66l66 -87h-23
z" />
    <glyph glyph-name="Uacute" unicode="&#xda;" horiz-adv-x="598" 
d="M88 173c1.33301 -19.333 7.83398 -37.5 19.501 -54.5s27 -31.667 46 -44s41.167 -22.166 66.5 -29.499s52.333 -11 81 -11c27.333 0 53.333 3.66699 78 11s46.5 17.166 65.5 29.499s34.167 27 45.5 44s17.666 35.167 18.999 54.5v518h42v-518
c-1.33301 -24.667 -8.66602 -48 -21.999 -70s-31.333 -41.333 -54 -58s-49 -29.834 -79 -39.501s-61.667 -14.5 -95 -14.5c-34.667 0 -67.334 4.83301 -98.001 14.5s-57.5 22.834 -80.5 39.501s-41.5 36 -55.5 58s-22 45.333 -24 70v518h45v-518zM308.001 744h-23l66 87h66z
" />
    <glyph glyph-name="Ucircumflex" unicode="&#xdb;" horiz-adv-x="598" 
d="M88 173c1.33301 -19.333 7.83398 -37.5 19.501 -54.5s27 -31.667 46 -44s41.167 -22.166 66.5 -29.499s52.333 -11 81 -11c27.333 0 53.333 3.66699 78 11s46.5 17.166 65.5 29.499s34.167 27 45.5 44s17.666 35.167 18.999 54.5v518h42v-518
c-1.33301 -24.667 -8.66602 -48 -21.999 -70s-31.333 -41.333 -54 -58s-49 -29.834 -79 -39.501s-61.667 -14.5 -95 -14.5c-34.667 0 -67.334 4.83301 -98.001 14.5s-57.5 22.834 -80.5 39.501s-41.5 36 -55.5 58s-22 45.333 -24 70v518h45v-518zM298.001 865l108 -107
l-26 -25l-82 83l-83 -83l-24 26z" />
    <glyph glyph-name="Udieresis" unicode="&#xdc;" horiz-adv-x="598" 
d="M88 173c1.33301 -19.333 7.83398 -37.5 19.501 -54.5s27 -31.667 46 -44s41.167 -22.166 66.5 -29.499s52.333 -11 81 -11c27.333 0 53.333 3.66699 78 11s46.5 17.166 65.5 29.499s34.167 27 45.5 44s17.666 35.167 18.999 54.5v518h42v-518
c-1.33301 -24.667 -8.66602 -48 -21.999 -70s-31.333 -41.333 -54 -58s-49 -29.834 -79 -39.501s-61.667 -14.5 -95 -14.5c-34.667 0 -67.334 4.83301 -98.001 14.5s-57.5 22.834 -80.5 39.501s-41.5 36 -55.5 58s-22 45.333 -24 70v518h45v-518zM201.001 763
c0 7.33301 2.83301 13.666 8.5 18.999s12.5 8 20.5 8c7.33301 0 14 -2.66699 20 -8s9 -11.666 9 -18.999s-3 -13.666 -9 -18.999s-12.667 -8 -20 -8c-8 0 -14.833 2.66699 -20.5 8s-8.5 11.666 -8.5 18.999zM335.001 763c0 7.33301 2.83301 13.666 8.5 18.999s12.5 8 20.5 8
c7.33301 0 14 -2.66699 20 -8s9 -11.666 9 -18.999s-3 -13.666 -9 -18.999s-12.667 -8 -20 -8c-8 0 -14.833 2.66699 -20.5 8s-8.5 11.666 -8.5 18.999z" />
    <glyph glyph-name="Yacute" unicode="&#xdd;" horiz-adv-x="681" 
d="M644 691l-283 -378l1 -313h-43l-1 313l-283 378h57l246 -338l250 338h56zM358 744h-23l66 87h66z" />
    <glyph glyph-name="Thorn" unicode="&#xde;" horiz-adv-x="535" 
d="M104 469c18 11.333 39.667 20.668 65 28.001s53 11 83 11c33.333 -0.666992 64.666 -7.83398 93.999 -21.501s54.833 -32 76.5 -55s38.834 -50 51.501 -81s19 -64.167 19 -99.5c0 -36 -6.33301 -69.833 -19 -101.5s-29.834 -59.167 -51.501 -82.5
s-47.167 -41.833 -76.5 -55.5s-60.666 -20.5 -93.999 -20.5c-30.667 0 -58 4 -82 12s-46.333 17 -67 27v-226h-41v888h42v-223zM104 95.002c-0.666992 -8 2.66699 -15.667 10 -23s17.833 -13.833 31.5 -19.5s29.667 -10.167 48 -13.5s37.833 -5.33301 58.5 -6
c26.667 0.666992 52 6.83398 76 18.501s45 27.167 63 46.5s32.333 42.166 43 68.499s16 54.166 16 83.499c0 28.667 -5.33301 56 -16 82s-25 48.833 -43 68.5s-39 35.334 -63 47.001s-49.333 17.5 -76 17.5c-19.333 0 -37.666 -1.33301 -54.999 -4s-32.833 -6.5 -46.5 -11.5
s-24.834 -10.833 -33.501 -17.5s-14 -13.667 -16 -21z" />
    <glyph glyph-name="germandbls" unicode="&#xdf;" horiz-adv-x="520" 
d="M256 651h-161v-262h179c20 0.666992 38.5 4.5 55.5 11.5s31.833 16.333 44.5 28s22.667 25.5 30 41.5s11 33 11 51c0 16.667 -3.66699 32.667 -11 48s-17.333 29 -30 41s-27.5 21.5 -44.5 28.5s-35.5 11.167 -55.5 12.5h-18zM95 -173l-41.998 -0.00195312v864h42h179
c25.333 -0.666992 49.166 -5.66699 71.499 -15s41.666 -21.666 57.999 -36.999s29.333 -33.166 39 -53.499s14.5 -41.833 14.5 -64.5c0 -34 -9 -64.5 -27 -91.5s-42 -48.167 -72 -63.5c34.667 -14.667 62.167 -37.334 82.5 -68.001s30.5 -64.667 30.5 -102
c0 -26 -5 -50.667 -15 -74s-23.833 -43.833 -41.5 -61.5s-38.5 -31.667 -62.5 -42s-50 -15.833 -78 -16.5h-85l-40 40h125c21.333 0.666992 41.5 5.33398 60.5 14.001s35.5 20 49.5 34s25 30 33 48s12 37.333 12 58c0 20 -4.16699 38.833 -12.5 56.5s-20 33.334 -35 47.001
s-33.167 24.667 -54.5 33s-45 13.166 -71 14.499h-161v-520z" />
    <glyph glyph-name="agrave" unicode="&#xe0;" horiz-adv-x="406" 
d="M331 41c-15.333 -15.333 -33.3311 -27.5039 -53.998 -36.5039s-42.667 -13.5 -66 -13.5c-22 0 -42.833 4 -62.5 12s-36.667 18.833 -51 32.5s-25.833 29.667 -34.5 48s-13 37.5 -13 57.5c0 20.667 4.33301 40.334 13 59.001s20.167 35 34.5 49s31.333 25 51 33
s40.5 12 62.5 12h120v21v10c0 18.667 -2.5 36.5 -7.5 53.5s-12.167 31.667 -21.5 44s-20.333 22.333 -33 30s-26.334 11.834 -41.001 12.501h-1c-10.667 0 -19.667 -0.333008 -27 -1s-14 -1.83398 -20 -3.50098s-12.167 -3.5 -18.5 -5.5l-22.5 -7l-10 39l24.5 8.5
c7 2.33301 14 4.33301 21 6s14.667 2.83398 23 3.50098s18.166 1 29.499 1h1c20 -0.666992 38.5 -5.5 55.5 -14.5s32 -21.167 45 -36.5s23.333 -33.166 31 -53.499s12.167 -42.166 13.5 -65.499v-11c-0.666992 -59.333 -1 -112.333 -1 -159
c0 -20 -0.166992 -39.667 -0.5 -59s-0.5 -36.833 -0.5 -52.5v-38.5v-16h-40v41zM331.002 250.996c-29.333 0 -52 0.166992 -68 0.5s-27.667 0.5 -35 0.5h-13.5h-3.5c-16 0 -31.333 -3 -46 -9s-27.334 -14 -38.001 -24s-19.167 -21.667 -25.5 -35s-9.5 -27.666 -9.5 -42.999
s3.16699 -29.5 9.5 -42.5s14.833 -24.333 25.5 -34s23.334 -17.334 38.001 -23.001s30 -8.5 46 -8.5c16.667 0 32.167 2.83301 46.5 8.5s27 13.334 38 23.001s19.667 21.167 26 34.5s9.5 27.666 9.5 42.999v109zM144.002 639.996h66l66 -87h-23z" />
    <glyph glyph-name="aacute" unicode="&#xe1;" horiz-adv-x="406" 
d="M331 41c-15.333 -15.333 -33.3311 -27.5039 -53.998 -36.5039s-42.667 -13.5 -66 -13.5c-22 0 -42.833 4 -62.5 12s-36.667 18.833 -51 32.5s-25.833 29.667 -34.5 48s-13 37.5 -13 57.5c0 20.667 4.33301 40.334 13 59.001s20.167 35 34.5 49s31.333 25 51 33
s40.5 12 62.5 12h120v21v10c0 18.667 -2.5 36.5 -7.5 53.5s-12.167 31.667 -21.5 44s-20.333 22.333 -33 30s-26.334 11.834 -41.001 12.501h-1c-10.667 0 -19.667 -0.333008 -27 -1s-14 -1.83398 -20 -3.50098s-12.167 -3.5 -18.5 -5.5l-22.5 -7l-10 39l24.5 8.5
c7 2.33301 14 4.33301 21 6s14.667 2.83398 23 3.50098s18.166 1 29.499 1h1c20 -0.666992 38.5 -5.5 55.5 -14.5s32 -21.167 45 -36.5s23.333 -33.166 31 -53.499s12.167 -42.166 13.5 -65.499v-11c-0.666992 -59.333 -1 -112.333 -1 -159
c0 -20 -0.166992 -39.667 -0.5 -59s-0.5 -36.833 -0.5 -52.5v-38.5v-16h-40v41zM331.002 250.996c-29.333 0 -52 0.166992 -68 0.5s-27.667 0.5 -35 0.5h-13.5h-3.5c-16 0 -31.333 -3 -46 -9s-27.334 -14 -38.001 -24s-19.167 -21.667 -25.5 -35s-9.5 -27.666 -9.5 -42.999
s3.16699 -29.5 9.5 -42.5s14.833 -24.333 25.5 -34s23.334 -17.334 38.001 -23.001s30 -8.5 46 -8.5c16.667 0 32.167 2.83301 46.5 8.5s27 13.334 38 23.001s19.667 21.167 26 34.5s9.5 27.666 9.5 42.999v109zM235.002 552.996h-23l66 87h66z" />
    <glyph glyph-name="acircumflex" unicode="&#xe2;" horiz-adv-x="406" 
d="M331 41c-15.333 -15.333 -33.3311 -27.5039 -53.998 -36.5039s-42.667 -13.5 -66 -13.5c-22 0 -42.833 4 -62.5 12s-36.667 18.833 -51 32.5s-25.833 29.667 -34.5 48s-13 37.5 -13 57.5c0 20.667 4.33301 40.334 13 59.001s20.167 35 34.5 49s31.333 25 51 33
s40.5 12 62.5 12h120v21v10c0 18.667 -2.5 36.5 -7.5 53.5s-12.167 31.667 -21.5 44s-20.333 22.333 -33 30s-26.334 11.834 -41.001 12.501h-1c-10.667 0 -19.667 -0.333008 -27 -1s-14 -1.83398 -20 -3.50098s-12.167 -3.5 -18.5 -5.5l-22.5 -7l-10 39l24.5 8.5
c7 2.33301 14 4.33301 21 6s14.667 2.83398 23 3.50098s18.166 1 29.499 1h1c20 -0.666992 38.5 -5.5 55.5 -14.5s32 -21.167 45 -36.5s23.333 -33.166 31 -53.499s12.167 -42.166 13.5 -65.499v-11c-0.666992 -59.333 -1 -112.333 -1 -159
c0 -20 -0.166992 -39.667 -0.5 -59s-0.5 -36.833 -0.5 -52.5v-38.5v-16h-40v41zM331.002 250.996c-29.333 0 -52 0.166992 -68 0.5s-27.667 0.5 -35 0.5h-13.5h-3.5c-16 0 -31.333 -3 -46 -9s-27.334 -14 -38.001 -24s-19.167 -21.667 -25.5 -35s-9.5 -27.666 -9.5 -42.999
s3.16699 -29.5 9.5 -42.5s14.833 -24.333 25.5 -34s23.334 -17.334 38.001 -23.001s30 -8.5 46 -8.5c16.667 0 32.167 2.83301 46.5 8.5s27 13.334 38 23.001s19.667 21.167 26 34.5s9.5 27.666 9.5 42.999v109zM239.002 673.996l108 -107l-26 -25l-82 83l-83 -83l-24 26z
" />
    <glyph glyph-name="atilde" unicode="&#xe3;" horiz-adv-x="406" 
d="M332 572l-1.00195 1c-10 12 -23.167 19.5 -39.5 22.5s-31.166 0.833008 -44.499 -6.5h-1c-17.333 -10 -36.833 -14.5 -58.5 -13.5s-41.5 6.5 -59.5 16.5l9 43c10.667 -11.333 23.834 -18.5 39.501 -21.5s30.167 -0.833008 43.5 6.5h1c18 10 38 14.5 60 13.5
s42 -6.83301 60 -17.5zM330.998 41c-15.333 -15.333 -33.3311 -27.5039 -53.998 -36.5039s-42.667 -13.5 -66 -13.5c-22 0 -42.833 4 -62.5 12s-36.667 18.833 -51 32.5s-25.833 29.667 -34.5 48s-13 37.5 -13 57.5c0 20.667 4.33301 40.334 13 59.001s20.167 35 34.5 49
s31.333 25 51 33s40.5 12 62.5 12h120v21v10c0 18.667 -2.5 36.5 -7.5 53.5s-12.167 31.667 -21.5 44s-20.333 22.333 -33 30s-26.334 11.834 -41.001 12.501h-1c-10.667 0 -19.667 -0.333008 -27 -1s-14 -1.83398 -20 -3.50098s-12.167 -3.5 -18.5 -5.5l-22.5 -7l-10 39
l24.5 8.5c7 2.33301 14 4.33301 21 6s14.667 2.83398 23 3.50098s18.166 1 29.499 1h1c20 -0.666992 38.5 -5.5 55.5 -14.5s32 -21.167 45 -36.5s23.333 -33.166 31 -53.499s12.167 -42.166 13.5 -65.499v-11c-0.666992 -59.333 -1 -112.333 -1 -159
c0 -20 -0.166992 -39.667 -0.5 -59s-0.5 -36.833 -0.5 -52.5v-38.5v-16h-40v41zM331 250.996c-29.333 0 -52 0.166992 -68 0.5s-27.667 0.5 -35 0.5h-13.5h-3.5c-16 0 -31.333 -3 -46 -9s-27.334 -14 -38.001 -24s-19.167 -21.667 -25.5 -35s-9.5 -27.666 -9.5 -42.999
s3.16699 -29.5 9.5 -42.5s14.833 -24.333 25.5 -34s23.334 -17.334 38.001 -23.001s30 -8.5 46 -8.5c16.667 0 32.167 2.83301 46.5 8.5s27 13.334 38 23.001s19.667 21.167 26 34.5s9.5 27.666 9.5 42.999v109z" />
    <glyph glyph-name="adieresis" unicode="&#xe4;" horiz-adv-x="406" 
d="M154 634c0 7.33301 2.83301 13.666 8.5 18.999s12.5 8 20.5 8c7.33301 0 14 -2.66699 20 -8s9 -11.666 9 -18.999s-3 -13.666 -9 -18.999s-12.667 -8 -20 -8c-8 0 -14.833 2.66699 -20.5 8s-8.5 11.666 -8.5 18.999zM288 634c0 7.33301 2.83301 13.666 8.5 18.999
s12.5 8 20.5 8c7.33301 0 14 -2.66699 20 -8s9 -11.666 9 -18.999s-3 -13.666 -9 -18.999s-12.667 -8 -20 -8c-8 0 -14.833 2.66699 -20.5 8s-8.5 11.666 -8.5 18.999zM331 41c-15.333 -15.333 -33.3311 -27.5039 -53.998 -36.5039s-42.667 -13.5 -66 -13.5
c-22 0 -42.833 4 -62.5 12s-36.667 18.833 -51 32.5s-25.833 29.667 -34.5 48s-13 37.5 -13 57.5c0 20.667 4.33301 40.334 13 59.001s20.167 35 34.5 49s31.333 25 51 33s40.5 12 62.5 12h120v21v10c0 18.667 -2.5 36.5 -7.5 53.5s-12.167 31.667 -21.5 44
s-20.333 22.333 -33 30s-26.334 11.834 -41.001 12.501h-1c-10.667 0 -19.667 -0.333008 -27 -1s-14 -1.83398 -20 -3.50098s-12.167 -3.5 -18.5 -5.5l-22.5 -7l-10 39l24.5 8.5c7 2.33301 14 4.33301 21 6s14.667 2.83398 23 3.50098s18.166 1 29.499 1h1
c20 -0.666992 38.5 -5.5 55.5 -14.5s32 -21.167 45 -36.5s23.333 -33.166 31 -53.499s12.167 -42.166 13.5 -65.499v-11c-0.666992 -59.333 -1 -112.333 -1 -159c0 -20 -0.166992 -39.667 -0.5 -59s-0.5 -36.833 -0.5 -52.5v-38.5v-16h-40v41zM331.002 250.996
c-29.333 0 -52 0.166992 -68 0.5s-27.667 0.5 -35 0.5h-13.5h-3.5c-16 0 -31.333 -3 -46 -9s-27.334 -14 -38.001 -24s-19.167 -21.667 -25.5 -35s-9.5 -27.666 -9.5 -42.999s3.16699 -29.5 9.5 -42.5s14.833 -24.333 25.5 -34s23.334 -17.334 38.001 -23.001
s30 -8.5 46 -8.5c16.667 0 32.167 2.83301 46.5 8.5s27 13.334 38 23.001s19.667 21.167 26 34.5s9.5 27.666 9.5 42.999v109z" />
    <glyph glyph-name="ae" unicode="&#xe6;" horiz-adv-x="743" 
d="M322 40c-15.333 -15.333 -33.3369 -27.5029 -54.0039 -36.5029s-43 -13.5 -67 -13.5c-22 0 -42.833 4 -62.5 12s-36.667 18.833 -51 32.5s-25.833 29.667 -34.5 48s-13 37.833 -13 58.5s4.33301 40.334 13 59.001s20.167 34.834 34.5 48.501s31.333 24.5 51 32.5
s40.5 12 62.5 12h115c1.33301 11.333 3.33301 22 6 32c0 19.333 -3 37.333 -9 54s-13.667 31.167 -23 43.5s-20.5 22.166 -33.5 29.499s-26.5 11.333 -40.5 12h-1c-43.333 0 -82 -5 -116 -15l-10 40c39.333 11.333 81.333 17 126 17h1c30 -1.33301 57 -11.666 81 -30.999
s41.667 -44.666 53 -75.999c18.667 32.667 42 58.834 70 78.501s58.667 29.5 92 29.5c28 0 54 -6.5 78 -19.5s44.833 -30.833 62.5 -53.5s31.5 -49.334 41.5 -80.001s15 -64 15 -100v-24h-347v-46c5.33301 -22 13.166 -42.167 23.499 -60.5s22.5 -34.333 36.5 -48
s29.5 -24.334 46.5 -32.001s35.167 -11.5 54.5 -11.5c10.667 0 21.834 1.16699 33.501 3.5s23.334 5.33301 35.001 9s22.834 7.66699 33.501 12s20 8.5 28 12.5l17 -37c-17.333 -9.33301 -36 -17.333 -56 -24s-41.333 -12 -64 -16h-1c-4 -0.666992 -8.16699 -1 -12.5 -1
h-13.5c-32 0 -61.833 8.16699 -89.5 24.5s-51.167 38.5 -70.5 66.5c0.666992 -22.667 1.33398 -41.667 2.00098 -57s2.33398 -23.666 5.00098 -24.999h-47zM668.996 270.997c-2 26.667 -7.5 51.833 -16.5 75.5s-20.5 44.167 -34.5 61.5s-30 31 -48 41s-37.333 15 -58 15
c-20 0 -39 -4.83301 -57 -14.5s-33.833 -23.167 -47.5 -40.5s-24.5 -37.833 -32.5 -61.5s-12 -49.167 -12 -76.5h306zM312.996 251.996l-112.001 -0.000976562c-16.667 0 -32.167 -3 -46.5 -9s-26.833 -14 -37.5 -24s-19 -21.667 -25 -35s-9 -27.666 -9 -42.999
s3 -29.5 9 -42.5s14.333 -24.333 25 -34s23.167 -17.334 37.5 -23.001s29.833 -8.5 46.5 -8.5s32.334 2.83301 47.001 8.5s27.5 13.334 38.5 23.001s19.667 21 26 34s9.5 27.167 9.5 42.5v31c-4.66699 18 -7.66699 37.333 -9 58v22z" />
    <glyph glyph-name="ccedilla" unicode="&#xe7;" horiz-adv-x="493" 
d="M281 -36c2.66699 0 6.83398 -1.3418 12.501 -4.00879s11.5 -6.5 17.5 -11.5s11.167 -11 15.5 -18s6.5 -14.5 6.5 -22.5c0 -9.33301 -3.66699 -19 -11 -29s-20.333 -20.667 -39 -32l-32 26c4.66699 0.666992 9.66699 1.83398 15 3.50098s10.5 3.83398 15.5 6.50098
s9.16699 5.83398 12.5 9.50098s5 8.16699 5 13.5c0 7.33301 -1.83301 13.333 -5.5 18s-8.16699 8.16699 -13.5 10.5s-11 4 -17 5s-11 1.5 -15 1.5c-1.33301 0 -2.83301 -0.166992 -4.5 -0.5s-3.16699 -0.5 -4.5 -0.5l2 54c-28.667 4.66699 -55.334 14.5 -80.001 29.5
s-46.167 33.833 -64.5 56.5s-32.666 48.334 -42.999 77.001s-15.5 59.334 -15.5 92.001c0 35.333 6.16699 68.5 18.5 99.5s29.333 58.167 51 81.5s47.167 41.833 76.5 55.5s60.666 20.5 93.999 20.5c34 0 65.833 -7 95.5 -21s55.167 -33.333 76.5 -58l-29 -29
c-18.667 20 -40.167 36 -64.5 48s-50.5 18 -78.5 18c-27.333 0 -53 -5.66699 -77 -17s-45 -26.666 -63 -45.999s-32.167 -42 -42.5 -68s-15.5 -54 -15.5 -84s5.16699 -58.167 15.5 -84.5s24.5 -49.166 42.5 -68.499s39 -34.666 63 -45.999s49.667 -17 77 -17s53 5.5 77 16.5
s44.667 26.167 62 45.5l30 -29c-20 -21.333 -43.333 -38.666 -70 -51.999s-56 -21 -88 -23z" />
    <glyph glyph-name="egrave" unicode="&#xe8;" horiz-adv-x="456" 
d="M241 33c14 0 28.168 1.16895 42.501 3.50195s28 5.5 41 9.5s25.167 8.66699 36.5 14s20.666 10.666 27.999 15.999l17 -39c-16 -12 -36.833 -21.667 -62.5 -29s-51.5 -12.666 -77.5 -15.999h-1c-4 -0.666992 -8.16699 -1 -12.5 -1h-13.5
c-28 0 -54.167 6.16699 -78.5 18.5s-46 29.333 -65 51s-34.333 47 -46 76s-18.5 60.167 -20.5 93.5v19c0 35.333 5.33301 68.666 16 99.999s25 58.666 43 81.999s39 41.833 63 55.5s49.667 20.5 77 20.5c28 0 54 -5.83301 78 -17.5s44.833 -28.167 62.5 -49.5
s31.5 -46.833 41.5 -76.5s15 -62.5 15 -98.5v-24h-353c1.33301 -28 6.83301 -54.5 16.5 -79.5s22 -47 37 -66s32.5 -34.167 52.5 -45.5s41 -17 63 -17zM385.001 282.002c-2 26.667 -7.5 51.167 -16.5 73.5s-20.5 41.5 -34.5 57.5s-30 28.5 -48 37.5s-37.333 13.5 -58 13.5
c-20 0 -39 -4.5 -57 -13.5s-34 -21.5 -48 -37.5s-25.5 -35.167 -34.5 -57.5s-14.5 -46.833 -16.5 -73.5h313zM143.001 640.002h66l66 -87h-23z" />
    <glyph glyph-name="eacute" unicode="&#xe9;" horiz-adv-x="456" 
d="M241 33c14 0 28.168 1.16895 42.501 3.50195s28 5.5 41 9.5s25.167 8.66699 36.5 14s20.666 10.666 27.999 15.999l17 -39c-16 -12 -36.833 -21.667 -62.5 -29s-51.5 -12.666 -77.5 -15.999h-1c-4 -0.666992 -8.16699 -1 -12.5 -1h-13.5
c-28 0 -54.167 6.16699 -78.5 18.5s-46 29.333 -65 51s-34.333 47 -46 76s-18.5 60.167 -20.5 93.5v19c0 35.333 5.33301 68.666 16 99.999s25 58.666 43 81.999s39 41.833 63 55.5s49.667 20.5 77 20.5c28 0 54 -5.83301 78 -17.5s44.833 -28.167 62.5 -49.5
s31.5 -46.833 41.5 -76.5s15 -62.5 15 -98.5v-24h-353c1.33301 -28 6.83301 -54.5 16.5 -79.5s22 -47 37 -66s32.5 -34.167 52.5 -45.5s41 -17 63 -17zM385.001 282.002c-2 26.667 -7.5 51.167 -16.5 73.5s-20.5 41.5 -34.5 57.5s-30 28.5 -48 37.5s-37.333 13.5 -58 13.5
c-20 0 -39 -4.5 -57 -13.5s-34 -21.5 -48 -37.5s-25.5 -35.167 -34.5 -57.5s-14.5 -46.833 -16.5 -73.5h313zM245.001 553.002h-23l66 87h66z" />
    <glyph glyph-name="ecircumflex" unicode="&#xea;" horiz-adv-x="456" 
d="M241 33c14 0 28.168 1.16895 42.501 3.50195s28 5.5 41 9.5s25.167 8.66699 36.5 14s20.666 10.666 27.999 15.999l17 -39c-16 -12 -36.833 -21.667 -62.5 -29s-51.5 -12.666 -77.5 -15.999h-1c-4 -0.666992 -8.16699 -1 -12.5 -1h-13.5
c-28 0 -54.167 6.16699 -78.5 18.5s-46 29.333 -65 51s-34.333 47 -46 76s-18.5 60.167 -20.5 93.5v19c0 35.333 5.33301 68.666 16 99.999s25 58.666 43 81.999s39 41.833 63 55.5s49.667 20.5 77 20.5c28 0 54 -5.83301 78 -17.5s44.833 -28.167 62.5 -49.5
s31.5 -46.833 41.5 -76.5s15 -62.5 15 -98.5v-24h-353c1.33301 -28 6.83301 -54.5 16.5 -79.5s22 -47 37 -66s32.5 -34.167 52.5 -45.5s41 -17 63 -17zM385.001 282.002c-2 26.667 -7.5 51.167 -16.5 73.5s-20.5 41.5 -34.5 57.5s-30 28.5 -48 37.5s-37.333 13.5 -58 13.5
c-20 0 -39 -4.5 -57 -13.5s-34 -21.5 -48 -37.5s-25.5 -35.167 -34.5 -57.5s-14.5 -46.833 -16.5 -73.5h313zM226.001 674.002l108 -107l-26 -25l-82 83l-83 -83l-24 26z" />
    <glyph glyph-name="edieresis" unicode="&#xeb;" horiz-adv-x="456" 
d="M241 33c14 0 28.168 1.16895 42.501 3.50195s28 5.5 41 9.5s25.167 8.66699 36.5 14s20.666 10.666 27.999 15.999l17 -39c-16 -12 -36.833 -21.667 -62.5 -29s-51.5 -12.666 -77.5 -15.999h-1c-4 -0.666992 -8.16699 -1 -12.5 -1h-13.5
c-28 0 -54.167 6.16699 -78.5 18.5s-46 29.333 -65 51s-34.333 47 -46 76s-18.5 60.167 -20.5 93.5v19c0 35.333 5.33301 68.666 16 99.999s25 58.666 43 81.999s39 41.833 63 55.5s49.667 20.5 77 20.5c28 0 54 -5.83301 78 -17.5s44.833 -28.167 62.5 -49.5
s31.5 -46.833 41.5 -76.5s15 -62.5 15 -98.5v-24h-353c1.33301 -28 6.83301 -54.5 16.5 -79.5s22 -47 37 -66s32.5 -34.167 52.5 -45.5s41 -17 63 -17zM385.001 282.002c-2 26.667 -7.5 51.167 -16.5 73.5s-20.5 41.5 -34.5 57.5s-30 28.5 -48 37.5s-37.333 13.5 -58 13.5
c-20 0 -39 -4.5 -57 -13.5s-34 -21.5 -48 -37.5s-25.5 -35.167 -34.5 -57.5s-14.5 -46.833 -16.5 -73.5h313zM131.001 650.002c0 7.33301 2.83301 13.666 8.5 18.999s12.5 8 20.5 8c7.33301 0 14 -2.66699 20 -8s9 -11.666 9 -18.999s-3 -13.666 -9 -18.999
s-12.667 -8 -20 -8c-8 0 -14.833 2.66699 -20.5 8s-8.5 11.666 -8.5 18.999zM265.001 650.002c0 7.33301 2.83301 13.666 8.5 18.999s12.5 8 20.5 8c7.33301 0 14 -2.66699 20 -8s9 -11.666 9 -18.999s-3 -13.666 -9 -18.999s-12.667 -8 -20 -8
c-8 0 -14.833 2.66699 -20.5 8s-8.5 11.666 -8.5 18.999z" />
    <glyph glyph-name="igrave" unicode="&#xec;" horiz-adv-x="211" 
d="M95 500h41l1 -500h-41zM15 640h66l66 -87h-23z" />
    <glyph glyph-name="iacute" unicode="&#xed;" horiz-adv-x="211" 
d="M65 500h41l1 -500h-41zM74 553h-23l66 87h66z" />
    <glyph glyph-name="icircumflex" unicode="&#xee;" horiz-adv-x="177" 
d="M65 500h41l1 -500h-41zM87 674l108 -107l-26 -25l-82 83l-83 -83l-24 26z" />
    <glyph glyph-name="idieresis" unicode="&#xef;" horiz-adv-x="177" 
d="M65 500h41l1 -500h-41zM11 650c0 7.33301 2.83301 13.666 8.5 18.999s12.5 8 20.5 8c7.33301 0 14 -2.66699 20 -8s9 -11.666 9 -18.999s-3 -13.666 -9 -18.999s-12.667 -8 -20 -8c-8 0 -14.833 2.66699 -20.5 8s-8.5 11.666 -8.5 18.999zM105 650
c0 7.33301 2.83301 13.666 8.5 18.999s12.5 8 20.5 8c7.33301 0 14 -2.66699 20 -8s9 -11.666 9 -18.999s-3 -13.666 -9 -18.999s-12.667 -8 -20 -8c-8 0 -14.833 2.66699 -20.5 8s-8.5 11.666 -8.5 18.999z" />
    <glyph glyph-name="eth" unicode="&#xf0;" horiz-adv-x="489" 
d="M38 488c0 28.667 5.50195 55.5029 16.502 80.5029s25.833 47 44.5 66s40.667 34 66 45s52.333 16.5 81 16.5s55.667 -5.33301 81 -16s47.333 -25 66 -43s33.5 -39.167 44.5 -63.5s17.167 -50.5 18.5 -78.5v-3c2 -27.333 3 -55.333 3 -84v-84
c0 -26.667 -0.833008 -52.834 -2.5 -78.501s-4.83398 -50.5 -9.50098 -74.5c-5.33301 -26 -14.666 -50 -27.999 -72s-29.666 -40.833 -48.999 -56.5s-41.166 -27.834 -65.499 -36.501s-49.833 -13 -76.5 -13c-33.333 0 -64.833 7.66699 -94.5 23s-54.167 35 -73.5 59l41 33
c16 -22.667 35.833 -40.334 59.5 -53.001s48.5 -19 74.5 -19c22 0 42.667 3.66699 62 11s36.666 17.5 51.999 30.5s28.166 28.5 38.499 46.5s17.833 37.333 22.5 58c3.33301 24.667 6 50.167 8 76.5s3 53.5 3 81.5v34c-18.667 -28 -43.334 -50.167 -74.001 -66.5
s-65 -24.5 -103 -24.5c-27.333 0 -53.333 5.16699 -78 15.5s-46.334 24.333 -65.001 42s-33.667 38.5 -45 62.5s-17.333 50 -18 78v7zM78.002 483.003c1.33301 -22 6.49902 -42.6699 15.499 -62.0029s21 -36.166 36 -50.499s32.333 -25.666 52 -33.999
s40.5 -12.5 62.5 -12.5c24 0 46.333 4.33301 67 13s38.667 20.5 54 35.5s27.333 32.667 36 53s13 42.166 13 65.499c0 22 -4.5 42.833 -13.5 62.5s-21.333 36.834 -37 51.501s-33.5 26.334 -53.5 35.001s-41 13 -63 13c-24 0 -46.167 -4.66699 -66.5 -14
s-38.166 -21.666 -53.499 -36.999s-27.333 -33.333 -36 -54s-13 -42.334 -13 -65.001z" />
    <glyph glyph-name="ntilde" unicode="&#xf1;" horiz-adv-x="433" 
d="M316 566l-1.00195 1c-10 12 -23.167 19.5 -39.5 22.5s-31.166 0.833008 -44.499 -6.5h-1c-17.333 -10 -36.833 -14.5 -58.5 -13.5s-41.5 6.5 -59.5 16.5l9 43c10.667 -11.333 23.834 -18.5 39.501 -21.5s30.167 -0.833008 43.5 6.5h1c18 10 38 14.5 60 13.5
s42 -6.83301 60 -17.5zM80.998 429c16 25.333 36.002 44.8291 60.002 58.4961s50.333 20.5 79 20.5c23.333 0 45.166 -4.83301 65.499 -14.5s38 -22.667 53 -39s27 -35.666 36 -57.999s13.833 -46.166 14.5 -71.499l3 -325h-42l-1 325
c-0.666992 20 -4.16699 38.5 -10.5 55.5s-15 31.833 -26 44.5s-24.167 22.667 -39.5 30s-32 11 -50 11c-16.667 0 -33 -3.16699 -49 -9.5s-30.5 -15.166 -43.5 -26.499s-23.833 -24.666 -32.5 -39.999s-14.334 -32 -17.001 -50l1 -340h-42l-1 500h42v-71z" />
    <glyph glyph-name="ograve" unicode="&#xf2;" horiz-adv-x="527" 
d="M64 247c0 -29.333 5 -57.166 15 -83.499s23.833 -49.166 41.5 -68.499s38.167 -34.666 61.5 -45.999s48.333 -17 75 -17c26 0 50.5 5.66699 73.5 17s43 26.666 60 45.999s30.5 42.166 40.5 68.499s15 54.166 15 83.499c0 30 -5 58.167 -15 84.5s-23.5 49.333 -40.5 69
s-37 35.167 -60 46.5s-47.5 17 -73.5 17c-26.667 0 -51.667 -5.66699 -75 -17s-43.833 -26.833 -61.5 -46.5s-31.5 -42.667 -41.5 -69s-15 -54.5 -15 -84.5zM22 247c0 36 6.16699 69.667 18.5 101s29.166 58.666 50.499 81.999s46.333 41.833 75 55.5s59 20.5 91 20.5
s62 -6.83301 90 -20.5s52.5 -32.167 73.5 -55.5s37.667 -50.666 50 -81.999s18.5 -65 18.5 -101c0 -35.333 -6.16699 -68.5 -18.5 -99.5s-29 -58.167 -50 -81.5s-45.5 -41.833 -73.5 -55.5s-58 -20.5 -90 -20.5s-62.333 6.83301 -91 20.5s-53.667 32.167 -75 55.5
s-38.166 50.5 -50.499 81.5s-18.5 64.167 -18.5 99.5zM156 640h66l66 -87h-23z" />
    <glyph glyph-name="oacute" unicode="&#xf3;" horiz-adv-x="527" 
d="M64 247c0 -29.333 5 -57.166 15 -83.499s23.833 -49.166 41.5 -68.499s38.167 -34.666 61.5 -45.999s48.333 -17 75 -17c26 0 50.5 5.66699 73.5 17s43 26.666 60 45.999s30.5 42.166 40.5 68.499s15 54.166 15 83.499c0 30 -5 58.167 -15 84.5s-23.5 49.333 -40.5 69
s-37 35.167 -60 46.5s-47.5 17 -73.5 17c-26.667 0 -51.667 -5.66699 -75 -17s-43.833 -26.833 -61.5 -46.5s-31.5 -42.667 -41.5 -69s-15 -54.5 -15 -84.5zM22 247c0 36 6.16699 69.667 18.5 101s29.166 58.666 50.499 81.999s46.333 41.833 75 55.5s59 20.5 91 20.5
s62 -6.83301 90 -20.5s52.5 -32.167 73.5 -55.5s37.667 -50.666 50 -81.999s18.5 -65 18.5 -101c0 -35.333 -6.16699 -68.5 -18.5 -99.5s-29 -58.167 -50 -81.5s-45.5 -41.833 -73.5 -55.5s-58 -20.5 -90 -20.5s-62.333 6.83301 -91 20.5s-53.667 32.167 -75 55.5
s-38.166 50.5 -50.499 81.5s-18.5 64.167 -18.5 99.5zM272 553h-23l66 87h66z" />
    <glyph glyph-name="ocircumflex" unicode="&#xf4;" horiz-adv-x="513" 
d="M64 247c0 -29.333 5 -57.166 15 -83.499s23.833 -49.166 41.5 -68.499s38.167 -34.666 61.5 -45.999s48.333 -17 75 -17c26 0 50.5 5.66699 73.5 17s43 26.666 60 45.999s30.5 42.166 40.5 68.499s15 54.166 15 83.499c0 30 -5 58.167 -15 84.5s-23.5 49.333 -40.5 69
s-37 35.167 -60 46.5s-47.5 17 -73.5 17c-26.667 0 -51.667 -5.66699 -75 -17s-43.833 -26.833 -61.5 -46.5s-31.5 -42.667 -41.5 -69s-15 -54.5 -15 -84.5zM22 247c0 36 6.16699 69.667 18.5 101s29.166 58.666 50.499 81.999s46.333 41.833 75 55.5s59 20.5 91 20.5
s62 -6.83301 90 -20.5s52.5 -32.167 73.5 -55.5s37.667 -50.666 50 -81.999s18.5 -65 18.5 -101c0 -35.333 -6.16699 -68.5 -18.5 -99.5s-29 -58.167 -50 -81.5s-45.5 -41.833 -73.5 -55.5s-58 -20.5 -90 -20.5s-62.333 6.83301 -91 20.5s-53.667 32.167 -75 55.5
s-38.166 50.5 -50.499 81.5s-18.5 64.167 -18.5 99.5zM255 674l108 -107l-26 -25l-82 83l-83 -83l-24 26z" />
    <glyph glyph-name="otilde" unicode="&#xf5;" horiz-adv-x="513" 
d="M64 247c0 -29.333 5 -57.166 15 -83.499s23.833 -49.166 41.5 -68.499s38.167 -34.666 61.5 -45.999s48.333 -17 75 -17c26 0 50.5 5.66699 73.5 17s43 26.666 60 45.999s30.5 42.166 40.5 68.499s15 54.166 15 83.499c0 30 -5 58.167 -15 84.5s-23.5 49.333 -40.5 69
s-37 35.167 -60 46.5s-47.5 17 -73.5 17c-26.667 0 -51.667 -5.66699 -75 -17s-43.833 -26.833 -61.5 -46.5s-31.5 -42.667 -41.5 -69s-15 -54.5 -15 -84.5zM22 247c0 36 6.16699 69.667 18.5 101s29.166 58.666 50.499 81.999s46.333 41.833 75 55.5s59 20.5 91 20.5
s62 -6.83301 90 -20.5s52.5 -32.167 73.5 -55.5s37.667 -50.666 50 -81.999s18.5 -65 18.5 -101c0 -35.333 -6.16699 -68.5 -18.5 -99.5s-29 -58.167 -50 -81.5s-45.5 -41.833 -73.5 -55.5s-58 -20.5 -90 -20.5s-62.333 6.83301 -91 20.5s-53.667 32.167 -75 55.5
s-38.166 50.5 -50.499 81.5s-18.5 64.167 -18.5 99.5zM365 573l-1.00195 1c-10 14 -23.167 22.833 -39.5 26.5s-31.166 1.16699 -44.499 -7.5h-1c-17.333 -12 -36.833 -17.5 -58.5 -16.5s-41.5 7.5 -59.5 19.5l9 51c10.667 -13.333 23.834 -21.833 39.501 -25.5
s30.167 -1.16699 43.5 7.5h1c18 12 38 17.5 60 16.5s42 -7.83301 60 -20.5z" />
    <glyph glyph-name="odieresis" unicode="&#xf6;" horiz-adv-x="527" 
d="M64 247c0 -29.333 5 -57.166 15 -83.499s23.833 -49.166 41.5 -68.499s38.167 -34.666 61.5 -45.999s48.333 -17 75 -17c26 0 50.5 5.66699 73.5 17s43 26.666 60 45.999s30.5 42.166 40.5 68.499s15 54.166 15 83.499c0 30 -5 58.167 -15 84.5s-23.5 49.333 -40.5 69
s-37 35.167 -60 46.5s-47.5 17 -73.5 17c-26.667 0 -51.667 -5.66699 -75 -17s-43.833 -26.833 -61.5 -46.5s-31.5 -42.667 -41.5 -69s-15 -54.5 -15 -84.5zM22 247c0 36 6.16699 69.667 18.5 101s29.166 58.666 50.499 81.999s46.333 41.833 75 55.5s59 20.5 91 20.5
s62 -6.83301 90 -20.5s52.5 -32.167 73.5 -55.5s37.667 -50.666 50 -81.999s18.5 -65 18.5 -101c0 -35.333 -6.16699 -68.5 -18.5 -99.5s-29 -58.167 -50 -81.5s-45.5 -41.833 -73.5 -55.5s-58 -20.5 -90 -20.5s-62.333 6.83301 -91 20.5s-53.667 32.167 -75 55.5
s-38.166 50.5 -50.499 81.5s-18.5 64.167 -18.5 99.5zM172 650c0 7.33301 2.83301 13.666 8.5 18.999s12.5 8 20.5 8c7.33301 0 14 -2.66699 20 -8s9 -11.666 9 -18.999s-3 -13.666 -9 -18.999s-12.667 -8 -20 -8c-8 0 -14.833 2.66699 -20.5 8s-8.5 11.666 -8.5 18.999z
M306 650c0 7.33301 2.83301 13.666 8.5 18.999s12.5 8 20.5 8c7.33301 0 14 -2.66699 20 -8s9 -11.666 9 -18.999s-3 -13.666 -9 -18.999s-12.667 -8 -20 -8c-8 0 -14.833 2.66699 -20.5 8s-8.5 11.666 -8.5 18.999z" />
    <glyph glyph-name="divide" unicode="&#xf7;" horiz-adv-x="425" 
d="M177 204h64v-64h-64v64zM177 451h64v-64h-64v64zM35 273v42h345v-42h-345z" />
    <glyph glyph-name="oslash" unicode="&#xf8;" horiz-adv-x="513" 
d="M22 247c0 36 6.16992 69.668 18.5029 101.001s29.166 58.666 50.499 81.999s46.333 41.833 75 55.5s59 20.5 91 20.5c32.667 0 63.167 -7.16699 91.5 -21.5s53.166 -33.5 74.499 -57.5l-32 -28c-17.333 20 -37.5 35.833 -60.5 47.5s-47.5 17.5 -73.5 17.5
c-26.667 0 -51.667 -5.66699 -75 -17s-43.833 -26.833 -61.5 -46.5s-31.5 -42.667 -41.5 -69s-15 -54.5 -15 -84.5c0 -19.333 2.16699 -37.833 6.5 -55.5s10.166 -34.167 17.499 -49.5l-32 -28c-22.667 40 -34 84.333 -34 133zM446.003 247.001
c0 22.667 -2.83203 44.1709 -8.49902 64.5039s-13.834 39.166 -24.501 56.499l33 28c13.333 -21.333 23.833 -44.5 31.5 -69.5s11.5 -51.5 11.5 -79.5c0 -35.333 -6.16699 -68.5 -18.5 -99.5s-29 -58.167 -50 -81.5s-45.5 -41.833 -73.5 -55.5s-58 -20.5 -90 -20.5
c-36 0 -69.5 8.16699 -100.5 24.5s-57.167 38.5 -78.5 66.5l31 27c17.333 -23.333 38.833 -41.833 64.5 -55.5s53.5 -20.5 83.5 -20.5c26 0 50.5 5.66699 73.5 17s43 26.666 60 45.999s30.5 42.166 40.5 68.499s15 54.166 15 83.499z" />
    <glyph glyph-name="ugrave" unicode="&#xf9;" horiz-adv-x="450" 
d="M355 70c-15.333 -23.333 -34.999 -42.3311 -58.999 -56.998s-50.333 -22 -79 -22c-23.333 0 -45 4.83301 -65 14.5s-37.5 22.834 -52.5 39.501s-26.833 36.167 -35.5 58.5s-13.334 46.166 -14.001 71.499l-3 325h41l2 -325c0.666992 -19.333 4.33398 -37.5 11.001 -54.5
s15.667 -32 27 -45s24.666 -23.167 39.999 -30.5s32 -11 50 -11c16.667 0 32.834 3.33301 48.501 10s29.667 15.667 42 27s22.666 24.666 30.999 39.999s13.5 31.666 15.5 48.999v340h42v-452v-48h-41zM119.001 640.002h66l66 -87h-23z" />
    <glyph glyph-name="uacute" unicode="&#xfa;" horiz-adv-x="450" 
d="M355 70c-15.333 -23.333 -34.999 -42.3311 -58.999 -56.998s-50.333 -22 -79 -22c-23.333 0 -45 4.83301 -65 14.5s-37.5 22.834 -52.5 39.501s-26.833 36.167 -35.5 58.5s-13.334 46.166 -14.001 71.499l-3 325h41l2 -325c0.666992 -19.333 4.33398 -37.5 11.001 -54.5
s15.667 -32 27 -45s24.666 -23.167 39.999 -30.5s32 -11 50 -11c16.667 0 32.834 3.33301 48.501 10s29.667 15.667 42 27s22.666 24.666 30.999 39.999s13.5 31.666 15.5 48.999v340h42v-452v-48h-41zM219.001 553.002h-23l66 87h66z" />
    <glyph glyph-name="ucircumflex" unicode="&#xfb;" horiz-adv-x="450" 
d="M355 70c-15.333 -23.333 -34.999 -42.3311 -58.999 -56.998s-50.333 -22 -79 -22c-23.333 0 -45 4.83301 -65 14.5s-37.5 22.834 -52.5 39.501s-26.833 36.167 -35.5 58.5s-13.334 46.166 -14.001 71.499l-3 325h41l2 -325c0.666992 -19.333 4.33398 -37.5 11.001 -54.5
s15.667 -32 27 -45s24.666 -23.167 39.999 -30.5s32 -11 50 -11c16.667 0 32.834 3.33301 48.501 10s29.667 15.667 42 27s22.666 24.666 30.999 39.999s13.5 31.666 15.5 48.999v340h42v-452v-48h-41zM223.001 674.002l108 -107l-26 -25l-82 83l-83 -83l-24 26z" />
    <glyph glyph-name="udieresis" unicode="&#xfc;" horiz-adv-x="450" 
d="M355 70c-15.333 -23.333 -34.999 -42.3311 -58.999 -56.998s-50.333 -22 -79 -22c-23.333 0 -45 4.83301 -65 14.5s-37.5 22.834 -52.5 39.501s-26.833 36.167 -35.5 58.5s-13.334 46.166 -14.001 71.499l-3 325h41l2 -325c0.666992 -19.333 4.33398 -37.5 11.001 -54.5
s15.667 -32 27 -45s24.666 -23.167 39.999 -30.5s32 -11 50 -11c16.667 0 32.834 3.33301 48.501 10s29.667 15.667 42 27s22.666 24.666 30.999 39.999s13.5 31.666 15.5 48.999v340h42v-452v-48h-41zM128.001 650.002c0 7.33301 2.83301 13.666 8.5 18.999s12.5 8 20.5 8
c7.33301 0 14 -2.66699 20 -8s9 -11.666 9 -18.999s-3 -13.666 -9 -18.999s-12.667 -8 -20 -8c-8 0 -14.833 2.66699 -20.5 8s-8.5 11.666 -8.5 18.999zM262.001 650.002c0 7.33301 2.83301 13.666 8.5 18.999s12.5 8 20.5 8c7.33301 0 14 -2.66699 20 -8
s9 -11.666 9 -18.999s-3 -13.666 -9 -18.999s-12.667 -8 -20 -8c-8 0 -14.833 2.66699 -20.5 8s-8.5 11.666 -8.5 18.999z" />
    <glyph glyph-name="yacute" unicode="&#xfd;" horiz-adv-x="535" 
d="M58 -152c1.33301 -1.33301 2.66797 -2.33301 4.00098 -3s2.66602 -1.66699 3.99902 -3h2c3.33301 0 7 -0.166992 11 -0.5s8 -0.5 12 -0.5c23.333 0 46.166 7.83301 68.499 23.5s39.5 38.5 51.5 68.5l41 102l-194 471h45l169 -422l166 422h45l-192 -471l-44 -117l-2 -9
c-16 -35.333 -38.167 -62.333 -66.5 -81s-58.166 -28 -89.499 -28c-10.667 0 -22.667 1.66699 -36 5zM282.002 553h-23l66 87h66z" />
    <glyph glyph-name="thorn" unicode="&#xfe;" horiz-adv-x="517" 
d="M104 469c18 11.333 39.667 20.668 65 28.001s53 11 83 11c33.333 -0.666992 64.666 -7.83398 93.999 -21.501s54.833 -32 76.5 -55s38.834 -50 51.501 -81s19 -64.167 19 -99.5c0 -36 -6.33301 -69.833 -19 -101.5s-29.834 -59.167 -51.501 -82.5
s-47.167 -41.833 -76.5 -55.5s-60.666 -20.5 -93.999 -20.5c-30.667 0 -58 4 -82 12s-46.333 17 -67 27v-226h-41v888h42v-223zM104 95.002c-0.666992 -8 2.66699 -15.667 10 -23s17.833 -13.833 31.5 -19.5s29.667 -10.167 48 -13.5s37.833 -5.33301 58.5 -6
c26.667 0.666992 52 6.83398 76 18.501s45 27.167 63 46.5s32.333 42.166 43 68.499s16 54.166 16 83.499c0 28.667 -5.33301 56 -16 82s-25 48.833 -43 68.5s-39 35.334 -63 47.001s-49.333 17.5 -76 17.5c-19.333 0 -37.666 -1.33301 -54.999 -4s-32.833 -6.5 -46.5 -11.5
s-24.834 -10.833 -33.501 -17.5s-14 -13.667 -16 -21z" />
    <glyph glyph-name="ydieresis" unicode="&#xff;" horiz-adv-x="535" 
d="M58 -152c1.33301 -1.33301 2.66797 -2.33301 4.00098 -3s2.66602 -1.66699 3.99902 -3h2c3.33301 0 7 -0.166992 11 -0.5s8 -0.5 12 -0.5c23.333 0 46.166 7.83301 68.499 23.5s39.5 38.5 51.5 68.5l41 102l-194 471h45l169 -422l166 422h45l-192 -471l-44 -117l-2 -9
c-16 -35.333 -38.167 -62.333 -66.5 -81s-58.166 -28 -89.499 -28c-10.667 0 -22.667 1.66699 -36 5zM181.002 650c0 7.33301 2.83301 13.666 8.5 18.999s12.5 8 20.5 8c7.33301 0 14 -2.66699 20 -8s9 -11.666 9 -18.999s-3 -13.666 -9 -18.999s-12.667 -8 -20 -8
c-8 0 -14.833 2.66699 -20.5 8s-8.5 11.666 -8.5 18.999zM315.002 650c0 7.33301 2.83301 13.666 8.5 18.999s12.5 8 20.5 8c7.33301 0 14 -2.66699 20 -8s9 -11.666 9 -18.999s-3 -13.666 -9 -18.999s-12.667 -8 -20 -8c-8 0 -14.833 2.66699 -20.5 8
s-8.5 11.666 -8.5 18.999z" />
    <glyph glyph-name="dotlessi" unicode="&#x131;" horiz-adv-x="343" 
d="M35 51v42h182v539h42v-581h-224z" />
    <glyph glyph-name="Lslash" unicode="&#x141;" horiz-adv-x="570" 
d="M297 691h45h-45zM91 0h-46l122 334v357h42v-241l88 241h45l-133 -365v-284h337l1 -42h-379l-1 209z" />
    <glyph glyph-name="lslash" unicode="&#x142;" horiz-adv-x="380" 
d="M171 691h42v-256l98 169h48l-146 -255l1 -349h-42l-1 275l-92 -160h-52l144 248v328z" />
    <glyph glyph-name="OE" unicode="&#x152;" horiz-adv-x="1056" 
d="M561 88c-28.667 -31.333 -61.5 -55.333 -98.5 -72s-76.833 -25 -119.5 -25c-42 0 -82 9 -120 27s-71.333 42.833 -100 74.5s-51.5 69.167 -68.5 112.5s-25.5 90 -25.5 140c0 48.667 8.16699 94.167 24.5 136.5s38.833 79.333 67.5 111s62 56.667 100 75
s78.667 27.5 122 27.5c59.333 0 112.666 -15.5 159.999 -46.5s85 -73.167 113 -126.5v169h399v-40h-357v-262h305v-42h-305v-305h357l1 -42h-399l-1 166c-15.333 -30 -33.666 -56 -54.999 -78zM530 570c-23.333 26 -51.167 46.1689 -83.5 60.502s-66.833 21.5 -103.5 21.5
c-37.333 0 -72.5 -8 -105.5 -24s-61.833 -37.833 -86.5 -65.5s-44 -60.167 -58 -97.5s-21 -77.333 -21 -120c0 -43.333 7 -83.833 21 -121.5s33.167 -70.5 57.5 -98.5s53 -50.167 86 -66.5s68.5 -24.5 106.5 -24.5c36.667 0 71 7.33301 103 22s60 34.667 84 60
s43.5 55.166 58.5 89.499s24.167 71.5 27.5 111.5v55c-3.33301 40 -12.5 76.667 -27.5 110s-34.5 62.666 -58.5 87.999z" />
    <glyph glyph-name="oe" unicode="&#x153;" horiz-adv-x="880" 
d="M664 32c10.667 0 22.502 1.50098 35.502 4.50098s26 6.5 39 10.5s25.5 8.5 37.5 13.5s22 9.5 30 13.5l17 -37c-17.333 -9.33301 -38 -18.166 -62 -26.499s-47.333 -14.5 -70 -18.5h-1c-4 -0.666992 -8.16699 -1 -12.5 -1h-13.5c-22 0 -42.833 3.83301 -62.5 11.5
s-37.834 18.334 -54.501 32.001s-31.5 30 -44.5 49s-23.5 40.167 -31.5 63.5c-9.33301 -23.333 -21.166 -44.5 -35.499 -63.5s-30.666 -35.5 -48.999 -49.5s-38.5 -24.833 -60.5 -32.5s-45 -11.5 -69 -11.5c-32 0 -62.333 6.83301 -91 20.5s-53.667 32.167 -75 55.5
s-38.166 50.5 -50.499 81.5s-18.5 64.167 -18.5 99.5c0 36 6.16699 69.667 18.5 101s29.166 58.666 50.499 81.999s46.333 41.833 75 55.5s59 20.5 91 20.5c24 0 46.833 -3.83301 68.5 -11.5s41.667 -18.334 60 -32.001s34.666 -30.167 48.999 -49.5
s26.166 -40.333 35.499 -63c15.333 46 39.333 83.667 72 113s69.667 44 111 44c28 0 54 -6.5 78 -19.5s44.833 -30.833 62.5 -53.5s31.5 -49.334 41.5 -80.001s15 -64 15 -100v-24h-353c1.33301 -28 6.66602 -54 15.999 -78s21.5 -44.833 36.5 -62.5s32.333 -31.667 52 -42
s40.5 -15.5 62.5 -15.5zM64.002 247.001c0 -29.333 5 -57.166 15 -83.499s23.833 -49.166 41.5 -68.499s38.167 -34.666 61.5 -45.999s48.333 -17 75 -17c26 0 50.5 5.66699 73.5 17s43 26.666 60 45.999s30.5 42.166 40.5 68.499s15 54.166 15 83.499
c0 30 -5 58.167 -15 84.5s-23.5 49.333 -40.5 69s-37 35.167 -60 46.5s-47.5 17 -73.5 17c-26.667 0 -51.667 -5.66699 -75 -17s-43.833 -26.833 -61.5 -46.5s-31.5 -42.667 -41.5 -69s-15 -54.5 -15 -84.5zM810.002 271.001c-2 26.667 -7.5 51.834 -16.5 75.501
s-20.5 44.167 -34.5 61.5s-30 31 -48 41s-37.333 15 -58 15c-20 0 -39 -5 -57 -15s-34 -23.667 -48 -41s-25.5 -37.833 -34.5 -61.5s-14.5 -48.834 -16.5 -75.501h313z" />
    <glyph glyph-name="Scaron" unicode="&#x160;" horiz-adv-x="485" 
d="M79 112c16 -24 37.3301 -43.1709 63.9971 -57.5039s57.667 -21.5 93 -21.5c21.333 0 41.833 3.5 61.5 10.5s36.834 16.5 51.501 28.5s26.334 26.333 35.001 43s13 34.667 13 54s-3.83301 37.5 -11.5 54.5s-18.334 32.333 -32.001 46s-29.667 24.834 -48 33.501
s-38.166 14.334 -59.499 17.001h-3c-28.667 2.66699 -55.167 9.5 -79.5 20.5s-45.333 25 -63 42s-31.5 36.5 -41.5 58.5s-15 45 -15 69c0 26 5.5 50.333 16.5 73s26.167 42.167 45.5 58.5s42 29.166 68 38.499s53.667 14 83 14c38 0 72 -6.66699 102 -20
s55.667 -32.333 77 -57l-34 -27c-16.667 20 -37.5 35.833 -62.5 47.5s-52.5 17.5 -82.5 17.5c-22 0 -43.167 -3.66699 -63.5 -11s-38.333 -17.333 -54 -30s-28.167 -27.5 -37.5 -44.5s-14 -35.5 -14 -55.5c0 -19.333 4 -37.833 12 -55.5s19.167 -33.334 33.5 -47.001
s31.333 -25 51 -34s40.834 -14.5 63.501 -16.5c28 -4 53.833 -11.5 77.5 -22.5s44.167 -24.833 61.5 -41.5s30.833 -35.667 40.5 -57s14.5 -43.666 14.5 -66.999c0 -25.333 -5.5 -49.166 -16.5 -71.499s-25.833 -41.666 -44.5 -57.999s-40.667 -29.166 -66 -38.499
s-52.333 -14 -81 -14c-40.667 0 -77.5 8.66699 -110.5 26s-59.167 40 -78.5 68zM240.997 732.996l-108 107l26 25l82 -83l83 83l24 -26z" />
    <glyph glyph-name="scaron" unicode="&#x161;" horiz-adv-x="417" 
d="M340 418c-15.333 14.667 -34.001 25.833 -56.001 33.5s-45.333 11.5 -70 11.5c-34 0 -62.5 -8 -85.5 -24s-34.5 -36.667 -34.5 -62c0 -12 3 -23.667 9 -35s14.5 -21.833 25.5 -31.5s24.167 -17.834 39.5 -24.501s32 -11.334 50 -14.001
c22.667 -3.33301 43.667 -9.66602 63 -18.999s36 -20.5 50 -33.5s24.833 -27.667 32.5 -44s11.5 -33.5 11.5 -51.5c0 -20 -4.33301 -38 -13 -54s-20.5 -29.833 -35.5 -41.5s-32.333 -20.667 -52 -27s-40.5 -9.5 -62.5 -9.5c-31.333 0 -61.5 5.66699 -90.5 17
s-52.167 27.333 -69.5 48l32 25c14 -14 32 -25.667 54 -35s45.667 -14 71 -14c34.667 0 64 8.33301 88 25s36 38.667 36 66c0 12.667 -3 24.834 -9 36.501s-14.5 22.5 -25.5 32.5s-24 18.5 -39 25.5s-31.5 11.833 -49.5 14.5
c-23.333 3.33301 -44.666 9.66602 -63.999 18.999s-36 20.5 -50 33.5s-25 27.5 -33 43.5s-12 32.667 -12 50c0 18.667 4.5 35.834 13.5 51.501s21.167 29 36.5 40s33 19.5 53 25.5s41.333 9 64 9c31.333 0 60.833 -5.83301 88.5 -17.5s50.167 -26.5 67.5 -44.5z
M207.999 541.999l-108 107l26 25l82 -83l83 83l24 -26z" />
    <glyph glyph-name="Ydieresis" unicode="&#x178;" horiz-adv-x="681" 
d="M644 691l-283 -378l1 -313h-43l-1 313l-283 378h57l246 -338l250 338h56zM242 753c0 7.33301 2.83301 13.666 8.5 18.999s12.5 8 20.5 8c7.33301 0 14 -2.66699 20 -8s9 -11.666 9 -18.999s-3 -13.666 -9 -18.999s-12.667 -8 -20 -8c-8 0 -14.833 2.66699 -20.5 8
s-8.5 11.666 -8.5 18.999zM376 753c0 7.33301 2.83301 13.666 8.5 18.999s12.5 8 20.5 8c7.33301 0 14 -2.66699 20 -8s9 -11.666 9 -18.999s-3 -13.666 -9 -18.999s-12.667 -8 -20 -8c-8 0 -14.833 2.66699 -20.5 8s-8.5 11.666 -8.5 18.999z" />
    <glyph glyph-name="Zcaron" unicode="&#x17d;" horiz-adv-x="548" 
d="M110 42h368l1 -42h-415h-29l404 649h-376v42h415h35zM272 733l-108 107l26 25l82 -83l83 83l24 -26z" />
    <glyph glyph-name="zcaron" unicode="&#x17e;" horiz-adv-x="452" 
d="M45 43l312 414h-309v43h364v-43l-312 -414h312l1 -43h-367zM225 542l-108 107l26 25l82 -83l83 83l24 -26z" />
    <glyph glyph-name="florin" unicode="&#x192;" horiz-adv-x="337" 
d="M293 652c-4.66699 1.33301 -10.3301 2.00293 -16.9971 2.00293h-19c-14.667 -0.666992 -28.334 -4.66699 -41.001 -12s-23.834 -17.333 -33.501 -30s-17.167 -27.334 -22.5 -44.001s-8 -34.334 -8 -53.001v-26h132v-43h-132l1 -446h-39c-0.666992 56 -1 111.333 -1 166
v280h-76v43h74v38c1.33301 22.667 6 44.167 14 64.5s18.5 38.166 31.5 53.499s28.167 27.5 45.5 36.5s35.666 13.5 54.999 13.5h24.5c7.66699 0 15.5 -0.666992 23.5 -2z" />
    <glyph glyph-name="circumflex" unicode="&#x2c6;" horiz-adv-x="268" 
d="M138 674l108 -107l-26 -25l-82 83l-83 -83l-24 26z" />
    <glyph glyph-name="caron" unicode="&#x2c7;" horiz-adv-x="276" 
d="M139 542l-108 107l26 25l82 -83l83 83l24 -26z" />
    <glyph glyph-name="breve" unicode="&#x2d8;" horiz-adv-x="833" 
 />
    <glyph glyph-name="dotaccent" unicode="&#x2d9;" horiz-adv-x="148" 
d="M42 654h64v-64h-64v64z" />
    <glyph glyph-name="ring" unicode="&#x2da;" horiz-adv-x="833" 
 />
    <glyph glyph-name="ogonek" unicode="&#x2db;" horiz-adv-x="833" 
 />
    <glyph glyph-name="tilde" unicode="&#x2dc;" horiz-adv-x="334" 
d="M268 573l-1.00195 1c-10 14 -23.167 22.833 -39.5 26.5s-31.166 1.16699 -44.499 -7.5h-1c-17.333 -12 -36.833 -17.5 -58.5 -16.5s-41.5 7.5 -59.5 19.5l9 51c10.667 -13.333 23.834 -21.833 39.501 -25.5s30.167 -1.16699 43.5 7.5h1c18 12 38 17.5 60 16.5
s42 -7.83301 60 -20.5z" />
    <glyph glyph-name="hungarumlaut" unicode="&#x2dd;" horiz-adv-x="418" 
d="M66 553h-23l66 87h66zM275 553h-23l66 87h66z" />
    <glyph glyph-name="endash" unicode="&#x2013;" horiz-adv-x="416" 
d="M41 273v42h345v-42h-345z" />
    <glyph glyph-name="emdash" unicode="&#x2014;" horiz-adv-x="532" 
d="M41 273v42h459v-42h-459z" />
    <glyph glyph-name="quoteleft" unicode="&#x2018;" horiz-adv-x="150" 
d="M104 555l-43 -20l-27 58l45 97l8 -4l-9 -74z" />
    <glyph glyph-name="quoteright" unicode="&#x2019;" horiz-adv-x="159" 
d="M59 686l48 5l7 -63l-74 -78l-6 6l32 67z" />
    <glyph glyph-name="quotesinglbase" unicode="&#x201a;" horiz-adv-x="172" 
d="M77 64h48l1 -64l-83 -69l-5 6l40 63z" />
    <glyph glyph-name="quotedblleft" unicode="&#x201c;" horiz-adv-x="218" 
d="M155 623l32 -67l-6 -6l-74 78l7 63l48 -5zM82 623l32 -67l-6 -6l-74 78l7 63l48 -5z" />
    <glyph glyph-name="quotedblright" unicode="&#x201d;" horiz-adv-x="237" 
d="M59 686l48 5l7 -63l-74 -78l-6 6l32 67zM132 686l48 5l7 -63l-74 -78l-6 6l32 67z" />
    <glyph glyph-name="quotedblbase" unicode="&#x201e;" horiz-adv-x="231" 
d="M64 66h49v-63l-80 -70l-5 6l38 64zM140 65h47v-64l-81 -70l-4 7l38 64v63z" />
    <glyph glyph-name="dagger" unicode="&#x2020;" horiz-adv-x="486" 
d="M43 559v26h187v132h26v-132h197v-26h-197v-558h-26v558h-187z" />
    <glyph glyph-name="daggerdbl" unicode="&#x2021;" horiz-adv-x="408" 
d="M32 464h335v-44h-335v44zM32 297h335v-44h-335v44zM177 0l-1 691h44l1 -691h-44z" />
    <glyph glyph-name="bullet" unicode="&#x2022;" horiz-adv-x="209" 
d="M44 384c0 16.667 6.16895 31.334 18.502 44.001s26.833 19 43.5 19c16 0 30.5 -6.33301 43.5 -19s19.5 -27.334 19.5 -44.001c0 -7.33301 -1.83301 -14.666 -5.5 -21.999s-8.33398 -13.833 -14.001 -19.5s-12.334 -10.167 -20.001 -13.5s-15.5 -5 -23.5 -5
c-16.667 0 -31.167 6.16699 -43.5 18.5s-18.5 26.166 -18.5 41.499z" />
    <glyph glyph-name="ellipsis" unicode="&#x2026;" horiz-adv-x="435" 
d="M42 64h64l1 -64h-64zM187 64h64l1 -64h-64zM332 64h64l1 -64h-64z" />
    <glyph glyph-name="perthousand" unicode="&#x2030;" horiz-adv-x="1040" 
d="M524 691h50l-401 -690h-48zM744 182c0 -17.333 2.66699 -33.5 8 -48.5s12.833 -28.167 22.5 -39.5s20.834 -20.166 33.501 -26.499s26 -9.5 40 -9.5c14.667 0 28.5 3.16699 41.5 9.5s24.333 15.166 34 26.499s17.334 24.5 23.001 39.5s8.5 31.167 8.5 48.5
s-2.83301 33.666 -8.5 48.999s-13.334 28.5 -23.001 39.5s-21 19.667 -34 26s-26.833 9.5 -41.5 9.5c-14 0 -27.333 -3.16699 -40 -9.5s-23.834 -15 -33.501 -26s-17.167 -24.167 -22.5 -39.5s-8 -31.666 -8 -48.999zM702 182c0 22.667 3.83301 44.167 11.5 64.5
s18.167 37.833 31.5 52.5s28.833 26.334 46.5 35.001s36.5 13 56.5 13c20.667 0 40 -4.33301 58 -13s33.667 -20.334 47 -35.001s24 -32.167 32 -52.5s12 -41.833 12 -64.5s-4 -44.167 -12 -64.5s-18.667 -38 -32 -53s-29 -26.833 -47 -35.5s-37.333 -13 -58 -13
c-20 0 -38.833 4.33301 -56.5 13s-33.167 20.5 -46.5 35.5s-23.833 32.667 -31.5 53s-11.5 41.833 -11.5 64.5zM91 506c0 -16.667 2.83301 -32.5 8.5 -47.5s13.334 -28.167 23.001 -39.5s21 -20.333 34 -27s26.833 -10 41.5 -10c14 0 27.333 3.33301 40 10
s23.667 15.667 33 27s16.833 24.5 22.5 39.5s8.5 30.833 8.5 47.5c0 17.333 -2.83301 33.666 -8.5 48.999s-13.167 28.5 -22.5 39.5s-20.333 19.667 -33 26s-26 9.5 -40 9.5c-14.667 0 -28.5 -3.16699 -41.5 -9.5s-24.333 -15 -34 -26s-17.334 -24.167 -23.001 -39.5
s-8.5 -31.666 -8.5 -48.999zM49 506c0 22.667 3.83301 44.167 11.5 64.5s18.334 38 32.001 53s29.5 26.833 47.5 35.5s37.333 13 58 13c20 0 39 -4.33301 57 -13s33.5 -20.5 46.5 -35.5s23.333 -32.667 31 -53s11.5 -41.833 11.5 -64.5s-3.83301 -44.167 -11.5 -64.5
s-18 -38 -31 -53s-28.5 -26.833 -46.5 -35.5s-37 -13 -57 -13c-20.667 0 -40 4.33301 -58 13s-33.833 20.5 -47.5 35.5s-24.334 32.667 -32.001 53s-11.5 41.833 -11.5 64.5zM415 182c0 -17.333 2.66699 -33.5 8 -48.5s12.833 -28.167 22.5 -39.5
s20.834 -20.166 33.501 -26.499s26 -9.5 40 -9.5c14.667 0 28.5 3.16699 41.5 9.5s24.333 15.166 34 26.499s17.334 24.5 23.001 39.5s8.5 31.167 8.5 48.5s-2.83301 33.666 -8.5 48.999s-13.334 28.5 -23.001 39.5s-21 19.667 -34 26s-26.833 9.5 -41.5 9.5
c-14 0 -27.333 -3.16699 -40 -9.5s-23.834 -15 -33.501 -26s-17.167 -24.167 -22.5 -39.5s-8 -31.666 -8 -48.999zM373 182c0 22.667 3.83301 44.167 11.5 64.5s18.167 37.833 31.5 52.5s28.833 26.334 46.5 35.001s36.5 13 56.5 13c20.667 0 40 -4.33301 58 -13
s33.667 -20.334 47 -35.001s24 -32.167 32 -52.5s12 -41.833 12 -64.5s-4 -44.167 -12 -64.5s-18.667 -38 -32 -53s-29 -26.833 -47 -35.5s-37.333 -13 -58 -13c-20 0 -38.833 4.33301 -56.5 13s-33.167 20.5 -46.5 35.5s-23.833 32.667 -31.5 53s-11.5 41.833 -11.5 64.5z
" />
    <glyph glyph-name="guilsinglleft" unicode="&#x2039;" horiz-adv-x="352" 
d="M290 494l31 -29l-215 -217l215 -212l-30 -31l-244 243z" />
    <glyph glyph-name="guilsinglright" unicode="&#x203a;" horiz-adv-x="343" 
d="M321 248l-244 -243l-30 31l215 212l-215 217l31 29z" />
    <glyph glyph-name="fraction" unicode="&#x2044;" horiz-adv-x="382" 
d="M91 0h-46l252 691h45z" />
    <glyph glyph-name="Euro" unicode="&#x20ac;" horiz-adv-x="745" 
d="M711 102c-31.333 -33.333 -67.668 -60.1699 -109.001 -80.5029s-86.333 -30.5 -135 -30.5c-39.333 0 -76.5 6.83301 -111.5 20.5s-66.5 32.5 -94.5 56.5s-51.833 52.5 -71.5 85.5s-33.834 68.833 -42.501 107.5h-107v43h100c0 6 -0.5 12.333 -1.5 19s-1.5 13 -1.5 19
c0 10.667 0.5 20.667 1.5 30s2.16699 18.333 3.5 27h-102v42h111c10 36.667 25.333 70.5 46 101.5s44.834 57.833 72.501 80.5s58.334 40.334 92.001 53.001s68.834 19 105.501 19c48.667 0 93.667 -10.167 135 -30.5s77.666 -47.166 108.999 -80.499l-31 -31
c-28 30.667 -59.5 54.834 -94.5 72.501s-74.5 26.5 -118.5 26.5c-31.333 0 -61.5 -5.16699 -90.5 -15.5s-55.333 -24.833 -79 -43.5s-44.5 -41 -62.5 -67s-31.667 -54.333 -41 -85h343v-42h-352c-3.33301 -18.667 -5 -37.667 -5 -57c0 -6 0.333008 -12.333 1 -19
s1 -13 1 -19h355v-43h-345c8 -32.667 20.667 -62.834 38 -90.501s38 -51.667 62 -72s51 -36.166 81 -47.499s61.333 -17 94 -17c44 0 83.5 9 118.5 27s66.5 43 94.5 75z" />
    <glyph glyph-name="trademark" unicode="&#x2122;" horiz-adv-x="417" 
d="M122 480h-32v174h-60v29h150v-29h-58v-174zM361 683v-202.999h-30v138l-23 -37c-8 -12.667 -14.667 -24.334 -20 -35.001h-16l-42 72v-138h-31v203h26l56 -95l27.5 49l27.5 46h25z" />
    <glyph glyph-name="minus" unicode="&#x2212;" horiz-adv-x="417" 
d="M41 273v42h345v-42h-345z" />
    <glyph glyph-name="fi" unicode="&#xfb01;" horiz-adv-x="486" 
d="M293 652c-4.66699 1.33301 -10.3301 2.00391 -16.9971 2.00391h-19c-14.667 -0.666992 -28.334 -4.66699 -41.001 -12s-23.834 -17.333 -33.501 -30s-17.167 -27.334 -22.5 -44.001s-8 -34.334 -8 -53.001v-26h131v-43h-131l1 -446h-39l-1 446h-76v43h74
c0.666992 0 1 2.33301 1 7c0 1.33301 -0.166992 3.16602 -0.5 5.49902s-0.5 4.5 -0.5 6.5v7v12c1.33301 22.667 6 44.167 14 64.5s18.5 38.166 31.5 53.499s28.167 27.5 45.5 36.5s35.666 13.5 54.999 13.5h24.5c7.66699 0 15.5 -0.666992 23.5 -2zM398.004 500.004h41
l1 -500h-41zM390.004 650.004c0 7.33301 2.83301 13.666 8.5 18.999s12.5 8 20.5 8c7.33301 0 14 -2.66699 20 -8s9 -11.666 9 -18.999s-3 -13.666 -9 -18.999s-12.667 -8 -20 -8c-8 0 -14.833 2.66699 -20.5 8s-8.5 11.666 -8.5 18.999z" />
    <glyph glyph-name="fl" unicode="&#xfb02;" horiz-adv-x="490" 
d="M262 695l43.001 0.000976562l1 -695h-43l-1 446h-110l1 -446h-39l-1 446h-76v43h74c0.666992 0 1 2.33301 1 7c0 1.33301 -0.166992 3.16602 -0.5 5.49902s-0.5 4.5 -0.5 6.5v7v12c1.33301 23.333 6 45.166 14 65.499s18.5 38 31.5 53s28.167 26.833 45.5 35.5
s35.666 13.334 54.999 14.001h5zM152.001 489.001l110.002 0.00195312v165h-5c-14.667 -0.666992 -28.334 -4.66699 -41.001 -12s-23.834 -17.333 -33.501 -30s-17.167 -27.334 -22.5 -44.001s-8 -34.334 -8 -53.001v-26z" />
    <glyph glyph-name=".null" horiz-adv-x="0" 
 />
    <glyph glyph-name="nonmarkingreturn" horiz-adv-x="257" 
 />
    <glyph glyph-name="glyph107" horiz-adv-x="478" 
d="M240 -7c-30 2.66699 -58.167 11.1699 -84.5 25.5029s-49.333 33 -69 56s-35.167 49.333 -46.5 79s-17 61.167 -17 94.5s5.66699 64.833 17 94.5s26.833 56 46.5 79s42.667 41.667 69 56s54.5 23.166 84.5 26.499v68h47v-68c29.333 -3.33301 56.5 -11.833 81.5 -25.5
s46.833 -30.5 65.5 -50.5l-30 -31c-14.667 17.333 -32 31.666 -52 42.999s-41.667 18.666 -65 21.999v-428c22 3.33301 42.833 10.333 62.5 21s37.167 24.667 52.5 42l30 -29c-20 -20.667 -42.167 -37.5 -66.5 -50.5s-50.5 -21.167 -78.5 -24.5v-68h-47v68zM65 248.003
c0 -27.333 4.5 -53.332 13.5 -77.999s21.333 -46.5 37 -65.5s34.167 -34.833 55.5 -47.5s44.333 -20.334 69 -23.001v428c-24.667 -3.33301 -47.667 -11 -69 -23s-39.833 -27.5 -55.5 -46.5s-28 -40.833 -37 -65.5s-13.5 -51 -13.5 -79z" />
    <glyph glyph-name="glyph217" horiz-adv-x="0" 
 />
  </font>
</defs>
</svg>
